<?xml version="1.0" encoding="utf-8"?>
<!-- Generator: Adobe Illustrator 19.0.0, SVG Export Plug-In . SVG Version: 6.00 Build 0)  -->
<svg version="1.1" id="Layer_1" xmlns="http://www.w3.org/2000/svg" xmlns:xlink="http://www.w3.org/1999/xlink" x="0px" y="0px"
	 viewBox="0 17.9 612 759.1" style="enable-background:new 0 17.9 612 759.1;" xml:space="preserve">
<style type="text/css">
	.st0{fill:url(#SVGID_1_);}
	.st1{fill:#020202;}
</style>
<g>
	
		<linearGradient id="SVGID_1_" gradientUnits="userSpaceOnUse" x1="203.6162" y1="340.0756" x2="419.5191" y2="340.0756" gradientTransform="matrix(1 0 0 1 0 5.8553)">
		<stop  offset="0" style="stop-color:#EB2227"/>
		<stop  offset="0.5" style="stop-color:#FCEE21"/>
		<stop  offset="1" style="stop-color:#29ABE2"/>
	</linearGradient>
	<path class="st0" d="M410.2,247.2c-3-5.9-6.8-10.9-12.3-14.8c-2.4-1.7-4.9-3.1-7.8-4c-0.1-0.1-0.1-0.1-0.2-0.1
		c-0.4-0.1-0.6-0.2-1-0.3c-0.1-0.1-0.2-0.1-0.4-0.1c-1-0.3-1.9-0.6-2.9-0.9c-1.1-0.3-2.3-0.6-3.5-0.9c-0.1-0.1-0.2-0.1-0.3-0.1
		c-0.1,0-0.3,0-0.4-0.1c-0.1,0-0.1-0.1-0.1-0.1c-0.1,0-0.4,0-0.5-0.1c-0.1,0-0.1-0.1-0.2-0.1c-0.1,0-0.3,0-0.5-0.1
		c0,0-0.1,0-0.1-0.1c-0.2,0-0.4-0.1-0.6-0.1c-0.1,0-0.2-0.1-0.3-0.1c-0.1,0-0.3,0-0.4,0c-0.1-0.1-0.1-0.1-0.3-0.1
		c-1.6-0.3-3.2-0.6-4.9-0.8c-1.4-0.2-2.8-0.4-4.2-0.6c-1.3-0.2-2.7-0.4-4-0.6c-1.2-0.1-2.3-0.3-3.5-0.4c-0.1,0-0.1,0-0.2-0.1
		c-0.1,0-0.1-0.1-0.2-0.1c-0.6-0.1-1.3-0.1-2-0.2c-0.1,0-0.3-0.1-0.4-0.1c-0.3,0-0.6,0-0.8-0.1c-0.1,0-0.3-0.1-0.4-0.1
		c-0.3,0-0.5,0-0.8,0c-0.1,0-0.3-0.1-0.4-0.1c-0.4,0-0.7-0.1-1.1-0.1c-0.1,0-0.1,0-0.2-0.1c-0.2,0-0.4,0-0.6,0
		c-1.1-0.1-2.2-0.1-3.2-0.3c-0.2,0-0.5-0.1-0.7-0.1c-0.1,0-0.3,0-0.4-0.1c-0.5,0-1-0.1-1.5-0.1c-0.2,0-0.4,0-0.6-0.1
		c-1.1-0.1-2-0.1-3.1-0.1c-0.8-0.1-1.6-0.1-2.5-0.1c-0.3-0.1-0.6-0.1-0.9-0.1c-1.2-0.1-2.3-0.1-3.5-0.1c-0.8-0.1-1.8-0.1-2.6-0.1
		c-0.4-0.1-0.8-0.1-1.2-0.1c-2.2-0.1-4.3-0.2-6.5-0.3c-0.4-0.1-0.8-0.1-1.3-0.1c-1.1-0.1-2.3-0.1-3.4-0.2c-0.1,0-0.3-0.1-0.4-0.1
		c-2.6,0-5.2,0-7.8,0c-4.1,0-8.1,0-12.2,0c-3.9,0.1-7.8,0.2-11.6,0.3c-1.8,0.1-3.5,0.1-5.3,0.1c-0.2,0-0.5-0.1-0.7,0
		c-3.2,0.1-6.4,0.3-9.5,0.4c-1.5,0.1-3,0.2-4.4,0.3c-0.1,0-0.1,0-0.1,0c-0.4,0.1-0.8,0.1-1.3,0.1c-0.6,0.1-1.1,0.1-1.6,0.1
		c-0.1,0-0.1,0-0.1,0c-1.5,0.1-3,0.3-4.4,0.4c-1.2,0.1-2.3,0.2-3.5,0.3c-0.1,0-0.2,0-0.3,0.1c-0.3,0-0.6,0.1-0.9,0.1
		c-0.1,0-0.2,0.1-0.3,0.1c-0.2,0-0.4,0.1-0.6,0.1c-1.3,0.1-2.7,0.3-4,0.4c-1.1,0.1-2,0.4-3.1,0.5c-0.2,0-0.4,0-0.6,0
		c-0.1,0-0.2,0.1-0.3,0.1c-0.2,0-0.4,0-0.6,0.1c-0.1,0.1-0.2,0.1-0.3,0.1c-1.6,0.3-3.1,0.6-4.7,0.9c-0.1,0-0.2,0-0.3,0
		c-0.1,0.1-0.2,0.1-0.3,0.1c-1.7,0.4-3.3,0.7-5,1.2c-3,0.8-5.9,1.9-8.7,3.2c-0.1,0-0.2,0.1-0.3,0.1c-3.2,1.6-6.1,3.5-8.7,5.8
		c-1,0.9-1.8,1.9-2.8,2.7c-0.5,0.5-1,1-1.4,1.5c-4.5,5.5-6.9,11.8-7.6,18.8c-0.4,3.3-0.1,6.6,0.6,9.9c0.8,3.9,2,7.7,3.8,11.3
		c1.4,2.9,3,5.7,4.4,8.6c0.4,0.8,0.7,1.6,1.1,2.4c2.2,4.1,4.4,8.2,6.6,12.3c1.3,2.4,2.7,4.8,4,7.2c0.3,0.6,0.6,1.2,0.9,1.7
		c1.8,3.5,3.6,6.9,4.7,10.7c0.8,2.6,1.8,5.1,2.8,7.6c0,0.1,0.1,0.2,0.1,0.3c0.1,0.1,0.1,0.3,0.1,0.4c0.1,0.2,0.1,0.4,0.1,0.6
		c1.3,4.5,2.6,8.9,3.9,13.3c0.5,1.7,0.8,3.4,1.3,5c0.1,0.1,0.1,0.3,0.1,0.5c0,0.1,0,0.3,0.1,0.4c0.1,0.1,0.1,0.2,0.1,0.3
		c0,0.1,0,0.1,0,0.1c0.1,0.1,0.1,0.4,0.1,0.5c0,0.1,0,0.1,0,0.2c0.1,0.1,0.1,0.3,0.1,0.5c0,0.1,0,0.1,0,0.1c0,0.1,0,0.4,0.1,0.5
		c0.3,1.6,0.6,3.2,0.9,4.8c0.5,3,1.1,6,1.5,9c0.3,1.9,0.5,4,0.8,5.9c0.1,1.4,0.4,2.9,0.5,4.4c0.1,1.4,0.3,2.8,0.4,4.2
		c0.1,2.1,0.3,4.2,0.4,6.3c0.1,2.2,0.4,4.2,0.5,6.4c0.2,2.3,0.6,4.5,1.6,6.6c0.1,0.1,0.1,0.2,0.1,0.3l0,0c0.6,1.8,1.6,3.5,2.8,5
		c1.1,1.2,2.3,2.3,3.5,3.5c0.2,0.1,0.4,0.4,0.6,0.5c1.2,0.8,2.3,1.7,3,3.3c-0.1,0.6-0.1,1.4-0.3,2.2c-0.8,2.6-1,5.3-0.6,7.9
		c0.1,0.8,0.3,1.6,0.2,2.3c-0.4,2.4-0.5,4.8-0.1,7.3c0.2,1,0.5,2,0.6,3c0.1,1.4,0,2.9,0.2,4.3c0.3,2.2,0.9,4.2,2,6
		c0.1,0.3,0.2,0.5,0.4,0.8c2,3.3,5.1,5.6,7.7,8.4c1.7,1.9,3.6,3.6,5.8,5c0.1,0.1,0.3,0.1,0.4,0.3l0,0c0.2,0.1,0.4,0.2,0.6,0.3
		c0.6,0.3,1.1,0.6,1.7,0.9c0.4,0.2,0.7,0.4,0.9,0.6c0.7,0.9,1.4,1.7,2.1,2.6c0,0.1,0,0.1,0.1,0.1l0.1,0.1c0.1,0.1,0.1,0.1,0.1,0.1
		v0.1c0,0.1,0.1,0.1,0.1,0.1l0,0c0.1,0.1,0.1,0.1,0.1,0.1l0,0c0.1,0.1,0.1,0.1,0.1,0.1l0,0c0.1,0.1,0.1,0.1,0.1,0.1l0,0
		c0.1,0.1,0.1,0.1,0.1,0.1l0,0c0.1,0.1,0.1,0.1,0.1,0.1l0,0c0.1,0,0.1,0.1,0.1,0.1l0.1,0.1l0.1,0.1c0,0,0,0.1,0.1,0.1l0.1,0.1
		c2.4,2.2,5.2,3.7,8.4,4.3c0.1,0,0.1,0,0.2,0c0.1,0.1,0.2,0.1,0.4,0.1c2.1,0.4,4.2,0.6,6.4,1c0.4,0.1,0.8,0.1,1.3,0.1
		c3.7,0.1,7.3,0.1,10.9,0.3c3-0.1,6-0.1,9-0.1c1.3-0.1,2.5-0.2,3.7-0.3c0.2-0.1,0.4-0.1,0.6-0.1c1.5-0.3,3-0.6,4.4-0.9
		c1.3-0.4,2.5-0.8,3.8-1.2c0.1,0,0.1-0.1,0.1-0.1l0,0c1.2-0.6,2.5-1.4,3.7-2c1.1-0.9,2.3-1.9,3.3-2.9c0.8-1,1.7-2,2.6-3.1
		c0.8-0.4,1.8-0.9,2.8-1.4c1.3-0.9,2.5-1.9,3.8-2.9c0.3-0.3,0.6-0.5,0.8-0.8c1-1.1,2-2.2,3-3.2c1.4-1.4,2.8-3,3.7-4.8
		c0.1-0.1,0.1-0.1,0.1-0.2c0.1-0.1,0.1-0.3,0.2-0.4c0.1-0.3,0.4-0.6,0.5-0.9c1.5-3.4,2.4-6.9,2.6-10.7c0-0.1,0-0.1,0-0.1
		s0-0.2,0-0.3c0-0.1,0-0.3,0-0.4c0-0.1,0-0.3,0-0.4c0.3-0.6,0.6-1.2,0.9-1.8c1.3-2.9,2-5.8,1.8-9c-0.1-1.6-0.2-3.2,0.1-4.8
		c0.2-1.6,0.1-3.3-0.1-5c-0.4-2.4-0.4-2.4,1-3.8c3.6-2.2,6.3-5.4,8.1-9.1c0.1-0.1,0.1-0.2,0.2-0.3c1.9-3.7,2.2-7.8,2.5-12
		c0.1-1.4,0.2-2.7,0.5-4c0.6-2.6,1.4-5.1,2.1-7.6c0.2-0.6,0.4-1.2,0.6-1.7c0.5-1.8,1-3.6,1.5-5.4c0.1-0.1,0.1-0.1,0.1-0.1
		c0-0.1,0-0.2,0-0.3c0-0.1,0.1-0.2,0.1-0.3c0-0.1,0.1-0.2,0.1-0.3c0-0.1,0.1-0.1,0.1-0.1c0-0.1,0-0.2,0.1-0.3c0-0.1,0.1-0.1,0.1-0.1
		c0.6-2.2,1.3-4.5,2-6.8c1.1-4,2.3-8,3.4-12c4-10.6,7.8-21.1,11.8-31.8c-1.4-0.1-2.7-0.1-4-0.1c-2.8-0.1-5.5-0.1-8.2-0.2
		c-2.6,0-5.2,0-7.8,0c-1.8,0-3.5,0-5.3,0c-2.8,0-5.6,0-8.4,0c-1.2,0-2.3,0-3.5,0c-1.1,0-2.2,0-3.2,0c-2.3,0-4.6,0-6.9,0
		c-1.7,0-3.3,0-5,0c-1.5,0-3,0-4.4,0c-1.2,0-2.5,0-3.7,0s-2.5,0-3.7,0c-2.3,0-4.5,0-6.8,0c-1.8,0-3.6,0-5.4,0c-1.9,0-3.8,0-5.7,0
		c-3.8,0-7.5,0-11.4,0c0.1,0.3,0.1,0.6,0.1,0.8c1.6,8.6,3.3,17.2,4.9,25.9c0.4,2.2,0.8,4.4,1.3,6.6c0.3,0.1,0.6,0.1,0.8,0.1
		c13.2,0,26.4,0,39.6,0c0.3,0,0.6,0,0.9,0c-0.4,1.2-0.8,2.2-1.2,3.2c-0.5,1.3-1,2.6-1.5,3.9c-0.1,0.4-0.2,0.8-0.3,1.2
		c0,0.1-0.1,0.1-0.1,0.1c0,0.1,0,0.3-0.1,0.4c0,0.1-0.1,0.1-0.1,0.1c0,0.1,0,0.2,0,0.4c-0.1,0.1-0.1,0.1-0.1,0.2
		c0,0.1,0,0.2-0.1,0.3c0,0.1-0.1,0.1-0.1,0.1c0,0.1-0.1,0.2-0.1,0.4c0,0.1-0.1,0.1-0.1,0.2c0,0.1-0.1,0.2-0.1,0.3
		c0,0.1-0.1,0.1-0.1,0.1s-0.1,0.2-0.1,0.3h-0.1v0.1c0,0.1-0.1,0.2-0.1,0.3h-0.1v0.1c0,0.1-0.1,0.2-0.1,0.4c-0.1,0.1-0.1,0.3-0.1,0.4
		c-0.4,1.2-0.8,2.4-1.3,3.7c0,0.1,0,0.1,0,0.1c-0.4,2-0.7,4-1,6c0,0.4,0,0.8-0.1,1.2c0,0.2-0.1,0.5-0.1,0.7c0,0.4,0,0.9-0.1,1.3
		c0,0.2-0.1,0.4-0.1,0.6c0,0.4-0.1,0.7-0.1,1.2c0,0.1-0.1,0.3-0.1,0.4c0,0.4-0.1,0.8-0.1,1.2c0,0.1-0.1,0.3-0.1,0.4
		c0,0.4-0.1,0.9-0.1,1.3c0,0.1-0.1,0.2-0.1,0.3c0,0.5-0.1,1-0.1,1.4c0,0.1-0.1,0.3-0.1,0.4c0,0.3-0.1,0.6-0.1,0.9
		c-1.7,1.2-3.3,2.5-4.5,4.2l-0.1,0.1c-0.1,0.1-0.1,0.1-0.1,0.2c-0.1,0.1-0.1,0.1-0.2,0.2c-0.1,0.1-0.2,0.2-0.4,0.4
		c-0.8,0.8-1.6,1.6-2.4,2.3c-1.8,1.9-2.9,4.1-3.5,6.6c-0.1,0.6-0.3,1.3-0.4,1.9c-0.1,0.1-0.1,0.3-0.1,0.4c0,0.1,0,0.3,0,0.4
		c-0.1,0.2-0.1,0.4-0.1,0.6c-0.1,0.9-0.1,1.7-0.6,2.4c-0.3,0.5-0.5,1-0.7,1.6c-1.2,3.2-1.6,6.3-1.1,9.7c0.1,0.7,0.1,1.4,0.1,2.2
		c0,1.7-0.1,3.4-0.1,5.1c0,0.9,0.1,1.7,0,2.4c-0.1,1.2-0.5,2.4-0.7,3.7c-0.1,0.7-0.3,1.4-0.5,2.1c-1.6,0.6-3.3,1.2-4.8,2.1
		c-1.3,0.7-2.3,1.9-3.5,2.8c-0.7,0.9-1.3,1.7-2,2.7c-1.4,0-2.9,0-4.4,0c-0.8,0-1.6,0.1-2.4,0.1c-0.3,0-0.6-0.1-0.8-0.1
		c-2.3-0.1-4.7-0.1-6.7-0.1c-1.5-1.5-2.8-2.8-4-4.1c-1.5-1.4-3.2-2.2-5.2-2.9c-0.1,0-0.1-0.1-0.2-0.1c-0.1,0-0.1,0-0.3-0.1
		c-0.1,0-0.1-0.1-0.2-0.1s-0.2,0-0.3-0.1c-0.1,0-0.1-0.1-0.1-0.1s-0.1-0.1-0.1-0.1c-0.1-0.1-0.1-0.3-0.1-0.5c0-0.1,0-0.4,0-0.5
		c-0.1-0.1-0.1-0.3-0.1-0.4c0-0.1,0-0.2,0-0.3c-0.1-0.1-0.1-0.3-0.1-0.4c0-0.1,0-0.1,0-0.1c0.1-0.1,0.1-0.2,0.1-0.4
		c0-0.1,0-0.3,0-0.4c0.1-0.1,0.1-0.3,0.1-0.4c0-0.2,0-0.4,0-0.6c0.1-0.2,0.1-0.5,0.1-0.7c0-1.2,0-2.3,0-3.5
		c-0.1-0.2-0.1-0.5-0.1-0.7c0.1-0.4,0.1-0.6,0.1-1c0.1-0.1,0.1-0.2,0.1-0.4c0-0.1,0-0.3,0-0.4c0.1-0.1,0.1-0.3,0.1-0.4
		c0-0.1,0-0.3,0-0.4c0.1-0.2,0.1-0.4,0.1-0.6c0-0.3,0-0.5,0-0.8c0-0.9,0-1.7,0-2.6c0-0.3,0-0.6,0-0.9c-0.1-0.1-0.1-0.3-0.1-0.5
		c0-0.1,0-0.4,0-0.5c-0.1-0.1-0.1-0.2-0.1-0.4c-0.2-0.8-0.4-1.5-0.6-2.3c-0.2-0.5-0.4-1.1-0.6-1.6c-0.4-0.8-0.5-1.6-0.4-2.4
		c0.2-3.8-0.4-7.6-2.1-11c-1.6-3.2-4.3-5.6-6.8-8.1c-1.1-0.9-2.1-1.9-3.2-3c-0.2-3-0.5-6.2-0.7-9.4c-0.1-0.3-0.1-0.6-0.1-0.9
		c0-0.1,0-0.1,0-0.2c0-0.1,0-0.1,0-0.1c0-0.1,0-0.3,0-0.4c-0.1-0.3-0.1-0.6-0.1-0.9c0-0.1,0-0.1,0-0.2c0.1-0.1,0.1-0.1,0-0.1
		c0-0.2,0-0.4,0-0.6c-0.1-0.3-0.1-0.6-0.1-0.8c0-0.1,0-0.1,0-0.2c0,0,0,0,0-0.1v-0.1c0-0.1,0-0.3,0-0.4c0-0.2-0.1-0.4-0.1-0.6
		c0-0.2,0-0.5,0-0.7c0-0.1-0.1-0.3-0.1-0.4c0-0.1-0.1-0.2-0.1-0.3c0.1-0.1,0.1-0.1,0-0.1c0-0.1,0-0.2,0-0.3c0-0.1-0.1-0.3-0.1-0.4
		c0-0.2,0-0.5-0.1-0.7c0-0.1-0.1-0.2-0.1-0.3c0-0.2,0-0.4,0-0.6c0-0.1-0.1-0.2-0.1-0.3c0-0.2,0-0.4-0.1-0.6
		c-0.1-0.1-0.1-0.3-0.1-0.4c0-0.2,0-0.4-0.1-0.6c0-0.1-0.1-0.2-0.1-0.3c0-0.2,0-0.4-0.1-0.6c0-0.1-0.1-0.1-0.1-0.2
		c0-0.2-0.1-0.4-0.1-0.6v-0.1l-0.1-0.1l0,0c-0.4-2.3-0.6-4.5-1.1-6.8c-1-5.3-2-10.5-3.1-15.8c-0.6-2.7-1.3-5.3-2-8
		c0-0.1,0-0.1,0-0.2c-2-6.1-4-12.2-6.1-18.4c-0.1-0.1-0.1-0.4-0.2-0.5c0-0.1,0-0.1,0-0.2c-0.1-0.1-0.1-0.1-0.1-0.2
		c0-0.1,0-0.1,0-0.2v-0.1l-0.1-0.1c0-0.1-0.1-0.2-0.1-0.4l0,0h-0.1c0-0.1-0.1-0.1-0.1-0.2c0-0.1-0.1-0.1-0.1-0.1
		c0-0.1-0.1-0.2-0.1-0.3v-0.1h-0.1c-0.1-0.2-0.1-0.4-0.2-0.6c0-0.1-0.1-0.1-0.1-0.1c-0.1-0.1-0.1-0.3-0.2-0.4
		c-0.2-0.5-0.5-1-0.7-1.5c-1.5-3-3-5.9-4.4-8.8c-0.4-0.8-0.8-1.6-1.2-2.4c-0.1-0.1-0.1-0.1-0.1-0.2v-0.1h-0.1v-0.1
		c-0.1-0.1-0.1-0.1-0.1-0.3c-1.2-2.4-2.4-5-3.6-7.4c-0.7-1.4-1.4-2.7-2.1-4.1c0-0.1,0-0.1-0.1-0.1c-0.1-0.1-0.1-0.1-0.1-0.2
		c-0.7-1.4-1.5-3-2.2-4.4c-1.4-2.7-2.9-5.5-4.4-8.2l0,0c-0.1-0.1-0.1-0.2-0.1-0.3l0,0c-0.1-0.1-0.1-0.2-0.1-0.3l0,0
		c-0.1-0.1-0.1-0.2-0.1-0.4v-0.1H245c-0.1-0.1-0.1-0.1-0.1-0.2c-0.8-1.6-1.6-3.1-2.4-4.7c-0.6-1.3-3.5-6.8-3.5-6.8l20.7-2.8
		c1.6-0.2,3.3-0.4,4.9-0.6c0.5-0.1,1-0.1,1.5-0.1c0.1,0,0.3-0.1,0.5-0.1c0.3,0,0.6-0.1,0.8-0.1c0.1,0,0.3-0.1,0.5-0.1
		c0.4,0,0.7,0,1.1-0.1c0.1,0,0.3-0.1,0.4-0.1c0.4,0,0.8-0.1,1.1-0.1c0.2,0,0.4-0.1,0.6-0.1c0.1,0,0.3-0.1,0.4-0.1c0.2,0,0.5,0,0.7,0
		c0.3,0,0.6-0.1,0.9-0.1c0.4,0,0.8,0,1.3-0.1c0.4-0.1,0.8-0.1,1.2-0.1c0.4,0,0.8,0,1.1,0c0.4,0,0.8-0.1,1.2-0.1c0.6,0,1.1,0,1.6,0
		c0.4-0.1,0.8-0.1,1.2-0.1c0.5,0,1,0,1.5,0c0.5-0.1,1-0.1,1.5-0.1c0.5,0,1,0,1.5,0c0.6-0.1,1.1-0.1,1.6-0.1l0,0c0.6,0,1.1,0,1.6,0
		c0.5,0,0.9-0.1,1.4-0.1c0.7,0,1.4,0,2.1-0.1c0.1,0,0.3,0,0.4,0c0.8,0,1.5-0.1,2.3-0.1c2.8,0,5.6,0,8.5-0.1c7,0.1,14,0.1,21,0.1
		c1,0,2,0.1,3,0.1c1.5,0.1,3,0.1,4.4,0.2c0.3,0.1,0.6,0.1,0.8,0.1c0.4,0,0.8,0,1.3,0.1c0.3,0,0.6,0.1,0.9,0.1c0.4,0,0.8,0,1.2,0
		c0.3,0,0.6,0.1,0.8,0.1c0.4,0,0.8,0,1.2,0c0.3,0,0.6,0.1,0.8,0.1c0.4,0,0.8,0,1.2,0c0.3,0.1,0.6,0.1,0.8,0.1c0.4,0,0.9,0,1.3,0.1
		c0.2,0,0.5,0.1,0.7,0.1c0.5,0,1,0,1.5,0.1c0.4,0,0.7,0.1,1,0.1c0.4,0,0.9,0,1.3,0.1c0.2,0,0.4,0.1,0.6,0.1c0.5,0,1,0.1,1.5,0.1
		c0.1,0,0.3,0,0.4,0.1c0.4,0,0.9,0.1,1.3,0.1c0.1,0,0.2,0,0.4,0.1c0.3,0,0.5,0,0.8,0c1.2,0.1,2.4,0.3,3.6,0.4
		c0.8,0.1,1.7,0.2,2.6,0.3c0.1,0,0.2,0.1,0.4,0.1c1.3,0.1,2.7,0.3,4,0.4c1.2,0.1,2.3,0.4,3.5,0.5c1.4,0.2,2.8,0.4,4.2,0.6
		c3,0.6,5.9,1.2,8.8,1.8c0.2,0.1,0.4,0.1,0.6,0.2c2,0.6,3.1,1.9,3.8,3.8c0.8,2.1,1.8,4,2.7,6c0,0.1,0.1,0.1,0.1,0.2v0.1h0.1
		c0,0.1,0.1,0.1,0.1,0.2c0,0.1,0.1,0.1,0.1,0.1l0,0c0.1,0,0.2,0,0.4,0c1-0.4,2-0.7,3-1c0.1-0.1,0.1-0.1,0.2-0.1h0.1h0.1
		c0.4-0.1,0.8-0.3,1.1-0.4c0.1,0,0.1,0,0.2,0c0.3-0.1,0.6-0.2,0.9-0.3c0.1,0,0.2-0.1,0.4-0.1h0.1v-0.1c0.1,0,0.1,0,0.2-0.1
		c0.1-0.1,0.1-0.1,0.2-0.1c0.1,0,0.1,0,0.2,0s0.1-0.1,0.1-0.1c2.1-0.7,4.2-1.4,6.4-2.2c4-1.4,8-2.8,12-4.2c0.8-0.3,1.7-0.6,2.6-0.9
		c-0.2-1.3-0.4-2.5-0.6-3.7C412.7,253.4,411.7,250.2,410.2,247.2z"/>
	<path class="st1" d="M411.5,237.8c-2-2.8-4.2-5.3-6.9-7.6c-2.8-2.3-5.6-4.3-8.8-5.9c-5-2.4-10.4-3.6-15.7-4.6
		c-3.5-0.6-7.1-1.2-10.6-1.8c-2.3-0.4-4.7-0.6-6.9-0.9c-2.1-0.3-4.2-0.5-6.3-0.7c-1.8-0.2-3.7-0.4-5.6-0.5c-2.3-0.1-4.7-0.3-7-0.4
		c-2.7-0.1-5.4-0.4-8-0.6c-1.6-0.1-3-0.2-4.6-0.3c-3-0.1-6.1-0.4-9.1-0.4c-4.1-0.1-8.2-0.1-12.3,0c-4.7,0-9.3,0.1-14,0.1
		c-2.2,0-4.4,0.1-6.6,0.1c-2.1,0.1-4.3,0.1-6.4,0.1c-0.1,0-0.1,0-0.1,0c-3,0.2-5.9,0.4-8.8,0.6c-1.6,0.1-3.2,0.1-4.9,0.3
		c-3.1,0.3-6.1,0.6-9.2,0.9c-3.1,0.4-6.2,0.6-9.2,1.2c-3.1,0.5-6.2,1.2-9.2,1.9c-5.4,1.2-10.7,2.8-15.5,5.6
		c-4.6,2.7-8.8,5.8-12.2,9.9c-3.5,4.2-6.3,8.9-7.7,14.2c-0.7,2.9-1.5,5.8-1.8,8.7c-0.3,3.4-0.2,6.8,0.5,10.1
		c1.1,5.2,2.5,10.2,4.9,14.9c2.3,4.6,4.7,9.1,7.2,13.8c1.7,3.2,3.5,6.5,5.2,9.7c1.2,2.2,2.5,4.5,3.7,6.7c1.3,2.6,2.9,5,3.9,7.8
		c2.2,5.8,4.1,11.7,6.1,17.6c2.3,6.7,3.5,13.5,4.8,20.5c0.6,2.9,0.9,5.8,1.3,8.6c0.4,2.4,0.7,4.9,1,7.3c0.3,2.4,0.4,4.8,0.6,7.2
		c0.3,3.2,0.6,6.3,0.8,9.5c0.1,2.4,0.5,4.7,1.1,7c1.3,5.6,4.1,10.3,8.5,14.1c0.6,0.6,1.3,1.1,2,1.7c0,0.1,0,0.2-0.1,0.3
		c-0.7,2.8-1,5.7-0.6,8.6c0.1,0.8,0.1,1.7,0.1,2.4c-0.3,2.3-0.4,4.5,0,6.8c0.1,0.9,0.6,1.9,0.5,2.8c-0.1,2.7,0.3,5.2,0.8,7.7
		c0.8,3.6,2.4,6.8,4.9,9.6c2.8,3,5.7,6,8.7,8.7c1.8,1.6,3.9,2.9,5.8,4.2c0.5,0.4,1.1,0.6,1.5,1c1.3,1.4,2.5,2.9,4,4.1
		c2.7,2.4,5.8,4.1,9.3,5c4.4,1.1,8.9,2,13.5,2.1c6.2,0.1,12.5-0.1,18.7-0.1c0.6,0,1.2-0.1,1.8-0.1c2.2-0.4,4.4-0.8,6.6-1.3
		c6.5-1.4,11.9-4.7,15.9-10c0.1-0.2,0.4-0.4,0.6-0.5c2.5-1.4,4.9-3,7-5c1.5-1.4,2.8-3,4.2-4.4c2-2,3.7-4.3,4.9-6.8
		c1.7-3.5,2.3-7.3,3.1-11c0.2-0.9,0.1-1.9,0.4-2.6c0.8-1.9,1.4-3.8,1.8-5.8c0.5-2.1,0.8-4.2,0.6-6.4c-0.1-0.9-0.3-1.9-0.1-2.7
		c0.4-2.3,0.6-4.5,0.2-6.6c1.6-1.7,3.2-3.2,4.7-4.8c1.7-1.9,3.2-4.1,4.2-6.6c1.8-4.4,2.5-9.1,2.9-13.8c0.1-1.2,0.2-2.4,0.5-3.7
		c0.6-2.2,1.2-4.2,1.8-6.4c1.9-6.6,3.8-13.3,5.7-19.9c0.8-3,1.7-6,2.7-9c1.2-3.5,2.6-7,3.9-10.4c2.3-6.1,4.6-12.2,6.8-18.4
		c0.6-1.7,1.1-3.5,0.4-5.3c-0.6-1.7-1.8-2.9-3.5-3.4c-3-0.9-6-0.9-9-0.9c-28.5-0.1-57-0.1-85.5-0.1c-1.6,0-3.2,0.3-4.5,1.4
		c-1.6,1.3-2.2,3-2,4.8c0.3,2.8,1,5.6,1.5,8.5c0.8,4.4,1.6,8.7,2.5,13.1c0.8,4.5,1.8,8.9,2.8,13.4c0.2,0.9,0.8,1.7,1.5,2.3
		c1.2,1.2,2.9,1.5,4.5,1.5c10.5,0,21,0,31.5,0c0.3,0,0.6,0,1,0c-0.5,1.5-0.8,3-1.4,4.3c-1.8,4.4-2.6,8.9-3,13.7
		c-0.1,2-0.3,4.1-0.4,6.1c-0.1,0.5-0.2,1-0.7,1.4c-0.4,0.3-0.8,0.6-1.1,1c-1.1,1.1-2.1,2.2-3.2,3.4c-0.4,0.4-0.8,0.7-1.2,1.2
		c-2.5,3-4.5,6.3-5.3,10.3c-0.3,1.3-0.5,2.6-0.8,3.9c-0.6,1.9-1.3,3.7-1.8,5.6c-0.6,2.4-0.9,4.8-0.6,7.2c0.1,1,0.1,2.1,0.1,3.2
		c0,1.6-0.2,3.2-0.1,4.8c0.1,1.4,0.1,2.7-0.3,3.9c-3.2,1.5-6.1,3.5-8.4,6.2c-2.9,0-5.7,0-8.5,0c-2-2.4-4.5-4.2-7.2-5.7
		c0-1.6,0-3.1,0-4.6c0-0.4,0-0.8,0.1-1.2c0.4-2,0.8-4,0.4-6c-0.4-2.6-1.2-5.2-1.8-7.7c-0.1-0.2-0.1-0.4-0.1-0.6
		c0.1-2.6-0.2-5.1-0.8-7.7c-0.8-3.7-2.2-7.2-4.7-10.1c-2.1-2.4-4.4-4.6-6.6-7c-0.1-0.1-0.4-0.4-0.4-0.6c-0.2-2.6-0.4-5.2-0.6-7.8
		c-0.2-2.5-0.4-5-0.7-7.5c-0.6-4.3-1.4-8.6-2.1-13c-1.3-8.2-3-16.3-5.3-24.3c-1.5-5-3.2-10-4.8-15c-1-2.9-2-5.7-3.2-8.5
		c-1.1-2.4-2.3-4.8-3.5-7.1c-2.9-5.8-5.7-11.7-8.6-17.5c-2-3.9-4-7.7-6.1-11.5c-1-1.9-1.9-3.7-3-5.7c1.3-0.3,2.6-0.6,3.9-0.8
		c4.8-0.6,9.6-1.4,14.4-1.9c3.2-0.4,6.5-0.6,9.7-0.9c2.7-0.2,5.4-0.3,8.1-0.4c2.3-0.1,4.7-0.2,7-0.3c3.1-0.1,6.3-0.1,9.4-0.1
		c5.9,0,11.9,0,17.9,0c1.3,0,2.5,0.1,3.7,0.1c3.5,0.1,7,0.3,10.4,0.4c1.6,0.1,3.1,0.2,4.7,0.3c2.6,0.1,5.2,0.4,7.8,0.6
		c1.6,0.1,3.2,0.1,4.7,0.3c3.4,0.4,6.7,0.7,10.1,1.2c3.7,0.5,7.5,1,11.3,1.6c2,0.3,4,0.8,5.7,1.2c1.3,2.8,2.3,5.3,3.5,7.6
		c0.6,1.3,1.7,2.4,3,3c1.8,0.7,3.5,0.6,5.3,0c3.2-1.1,6.4-2.2,9.5-3.3c5.4-1.9,10.7-3.7,16-5.6c1.1-0.4,2.2-0.7,3.2-1.5
		c1.6-1.3,2.2-3.1,2.2-5c0-1.7-0.4-3.4-0.7-5C417.8,248.6,415.1,243,411.5,237.8z M411.1,261.4c-4,1.4-8,2.8-12,4.2
		c-2.1,0.7-4.2,1.4-6.4,2.2c-0.1,0-0.1,0.1-0.1,0.1c-0.1,0-0.1,0-0.2,0c-0.1,0.1-0.1,0.1-0.2,0.1c-0.1,0-0.1,0-0.2,0.1v0.1h-0.1
		c-0.1,0-0.2,0.1-0.4,0.1c-0.3,0.1-0.6,0.2-0.9,0.3c-0.1,0-0.1,0-0.2,0c-0.4,0.1-0.8,0.3-1.1,0.4h-0.1h-0.1
		c-0.1,0.1-0.1,0.1-0.2,0.1c-1,0.4-2,0.7-3,1c-0.1,0-0.2,0-0.4,0l0,0c0-0.1-0.1-0.1-0.1-0.1c0-0.1-0.1-0.1-0.1-0.2h-0.1v-0.1
		c0-0.1-0.1-0.1-0.1-0.2c-0.9-2-1.9-4-2.7-6c-0.7-1.9-1.8-3.2-3.8-3.8c-0.2-0.1-0.4-0.1-0.6-0.2c-3-0.6-5.9-1.2-8.8-1.8
		c-1.4-0.2-2.8-0.4-4.2-0.6c-1.2-0.1-2.3-0.4-3.5-0.5c-1.3-0.1-2.7-0.3-4-0.4c-0.1,0-0.2-0.1-0.4-0.1c-0.8-0.1-1.7-0.2-2.6-0.3
		c-1.2-0.1-2.4-0.3-3.6-0.4c-0.3,0-0.5,0-0.8,0c-0.1,0-0.2,0-0.4-0.1c-0.4,0-0.9-0.1-1.3-0.1c-0.1,0-0.3,0-0.4-0.1
		c-0.5,0-1-0.1-1.5-0.1c-0.2,0-0.4-0.1-0.6-0.1c-0.4,0-0.9,0-1.3-0.1c-0.4,0-0.7-0.1-1-0.1c-0.5,0-1,0-1.5-0.1
		c-0.2,0-0.5-0.1-0.7-0.1c-0.4,0-0.9,0-1.3-0.1c-0.3-0.1-0.6-0.1-0.8-0.1c-0.4,0-0.8,0-1.2,0c-0.3,0-0.6-0.1-0.8-0.1
		c-0.4,0-0.8,0-1.2,0c-0.3,0-0.6-0.1-0.8-0.1c-0.4,0-0.8,0-1.2,0c-0.3,0-0.6-0.1-0.9-0.1c-0.4,0-0.8,0-1.3-0.1
		c-0.3-0.1-0.6-0.1-0.8-0.1c-1.5-0.1-3-0.1-4.4-0.2c-1,0-2-0.1-3-0.1c-7-0.1-14-0.1-21-0.1c-2.8,0-5.6,0-8.5,0.1
		c-0.8,0-1.5,0.1-2.3,0.1c-0.1,0-0.3,0-0.4,0c-0.7,0-1.4,0-2.1,0.1c-0.5,0-0.9,0.1-1.4,0.1c-0.6,0-1.1,0-1.6,0l0,0
		c-0.6,0.1-1.1,0.1-1.6,0.1c-0.5,0-1,0-1.5,0c-0.5,0.1-1,0.1-1.5,0.1c-0.5,0-1,0-1.5,0c-0.4,0.1-0.8,0.1-1.2,0.1c-0.6,0-1.1,0-1.6,0
		c-0.4,0-0.8,0.1-1.2,0.1c-0.4,0-0.8,0-1.1,0c-0.4,0.1-0.8,0.1-1.2,0.1c-0.4,0-0.8,0-1.3,0.1c-0.3,0-0.6,0.1-0.9,0.1
		c-0.2,0-0.5,0-0.7,0c-0.1,0-0.3,0.1-0.4,0.1c-0.2,0-0.4,0.1-0.6,0.1c-0.4,0-0.8,0.1-1.1,0.1c-0.1,0-0.3,0.1-0.4,0.1
		c-0.4,0-0.7,0-1.1,0.1c-0.1,0-0.3,0.1-0.5,0.1c-0.3,0-0.6,0.1-0.8,0.1c-0.1,0-0.3,0.1-0.5,0.1c-0.5,0.1-1,0.1-1.5,0.1
		c-1.6,0.2-3.3,0.4-4.9,0.6l-20.7,2.8c0,0,2.9,5.5,3.5,6.8c0.7,1.6,1.6,3.2,2.4,4.7c0.1,0.1,0.1,0.1,0.1,0.2h0.1v0.1
		c0.1,0.1,0.1,0.2,0.1,0.4l0,0c0.1,0.1,0.1,0.2,0.1,0.3l0,0c0.1,0.1,0.1,0.2,0.1,0.3l0,0c1.5,2.7,2.9,5.5,4.4,8.2
		c0.8,1.4,1.5,2.9,2.2,4.4c0.1,0.1,0.1,0.1,0.1,0.2c0.1,0,0.1,0.1,0.1,0.1c0.7,1.4,1.4,2.7,2.1,4.1c1.2,2.4,2.4,5,3.6,7.4
		c0.1,0.1,0.1,0.1,0.1,0.3v0.1h0.1v0.1c0.1,0.1,0.1,0.1,0.1,0.2c0.4,0.8,0.8,1.6,1.2,2.4c1.5,3,3,5.9,4.4,8.8c0.2,0.5,0.5,1,0.7,1.5
		c0.1,0.1,0.1,0.3,0.2,0.4c0,0.1,0.1,0.1,0.1,0.1c0.1,0.2,0.1,0.4,0.2,0.6h0.1v0.1c0,0.1,0.1,0.2,0.1,0.3c0,0.1,0.1,0.1,0.1,0.1
		c0,0.1,0.1,0.1,0.1,0.2h0.1l0,0c0,0.1,0.1,0.2,0.1,0.4l0.1,0.1v0.1c0,0.1,0,0.1,0,0.2c0.1,0.1,0.1,0.1,0.1,0.2c0,0.1,0,0.1,0,0.2
		c0.1,0.1,0.1,0.4,0.2,0.5c2,6.1,4,12.2,6.1,18.4c0,0.1,0,0.1,0,0.2c0.7,2.7,1.4,5.3,2,8c1.1,5.3,2.1,10.5,3.1,15.8
		c0.4,2.2,0.7,4.5,1.1,6.8l0,0l0.1,0.1v0.1c0,0.2,0.1,0.4,0.1,0.6c0,0.1,0.1,0.1,0.1,0.2c0,0.2,0,0.4,0.1,0.6c0,0.1,0.1,0.2,0.1,0.3
		c0,0.2,0,0.4,0.1,0.6c0.1,0.1,0.1,0.3,0.1,0.4c0,0.2,0,0.4,0.1,0.6c0,0.1,0.1,0.2,0.1,0.3c0,0.2,0,0.4,0,0.6c0,0.1,0.1,0.2,0.1,0.3
		c0,0.2,0,0.5,0.1,0.7c0,0.1,0.1,0.3,0.1,0.4c0,0.1,0,0.2,0,0.3c0,0.1,0,0.1,0,0.1s0.1,0.2,0.1,0.3c0,0.1,0.1,0.3,0.1,0.4
		c0,0.2,0,0.5,0,0.7c0,0.2,0.1,0.4,0.1,0.6c0,0.1,0,0.3,0,0.4v0.1c0,0,0,0,0,0.1c0,0.1,0,0.1,0,0.2c0.1,0.3,0.1,0.6,0.1,0.8
		c0,0.2,0,0.4,0,0.6c0.1,0.1,0.1,0.1,0,0.1c0,0.1,0,0.1,0,0.2c0.1,0.3,0.1,0.6,0.1,0.9c0,0.1,0,0.3,0,0.4c0,0.1,0,0.1,0,0.1
		c0,0.1,0,0.1,0,0.2c0.1,0.3,0.1,0.6,0.1,0.9c0.2,3.2,0.5,6.3,0.7,9.4c1.1,1,2.2,2,3.2,3c2.5,2.6,5.2,5,6.8,8.1
		c1.8,3.5,2.3,7.2,2.1,11c-0.1,0.9,0.1,1.7,0.4,2.4c0.3,0.5,0.4,1.1,0.6,1.6c0.2,0.8,0.4,1.5,0.6,2.3c0.1,0.1,0.1,0.2,0.1,0.4
		c0,0.1,0,0.4,0,0.5c0.1,0.1,0.1,0.3,0.1,0.5c0,0.3,0,0.6,0,0.9c0,0.9,0,1.7,0,2.6c0,0.3,0,0.5,0,0.8c-0.1,0.2-0.1,0.4-0.1,0.6
		c0,0.1,0,0.3,0,0.4c-0.1,0.1-0.1,0.3-0.1,0.4c0,0.1,0,0.3,0,0.4c-0.1,0.1-0.1,0.2-0.1,0.4c-0.1,0.4-0.1,0.6-0.1,1
		c0.1,0.2,0.1,0.5,0.1,0.7c0,1.2,0,2.3,0,3.5c-0.1,0.2-0.1,0.5-0.1,0.7c0,0.2,0,0.4,0,0.6c-0.1,0.1-0.1,0.3-0.1,0.4
		c0,0.1,0,0.3,0,0.4c-0.1,0.1-0.1,0.2-0.1,0.4c0,0.1,0,0.1,0,0.1c0.1,0.1,0.1,0.3,0.1,0.4c0,0.1,0,0.2,0,0.3
		c0.1,0.1,0.1,0.3,0.1,0.4c0,0.1,0,0.4,0,0.5c0.1,0.1,0.1,0.3,0.1,0.5c0.1,0,0.1,0,0.1,0.1c0.1,0,0.1,0.1,0.1,0.1
		c0.1,0,0.2,0,0.3,0.1c0.1,0,0.1,0.1,0.2,0.1s0.1,0,0.3,0.1c0.1,0,0.1,0.1,0.2,0.1c1.9,0.6,3.7,1.5,5.2,2.9c1.3,1.3,2.5,2.6,4,4.1
		c2,0.1,4.3,0.1,6.7,0.1c0.3,0,0.6,0.1,0.8,0.1c0.8-0.1,1.6-0.1,2.4-0.1c1.5,0,3,0,4.4,0c0.7-0.9,1.4-1.8,2-2.7
		c1.2-0.9,2.3-2.1,3.5-2.8c1.5-0.9,3.2-1.4,4.8-2.1c0.1-0.7,0.4-1.4,0.5-2.1c0.3-1.2,0.6-2.4,0.7-3.7c0.1-0.8,0-1.7,0-2.4
		c0-1.7,0.1-3.4,0.1-5.1c0-0.7,0-1.4-0.1-2.2c-0.6-3.3-0.1-6.6,1.1-9.7c0.2-0.5,0.4-1.1,0.7-1.6c0.4-0.7,0.6-1.6,0.6-2.4
		c0.1-0.2,0.1-0.4,0.1-0.6c0-0.1,0-0.3,0-0.4c0.1-0.1,0.1-0.3,0.1-0.4c0.1-0.6,0.3-1.3,0.4-1.9c0.6-2.4,1.8-4.7,3.5-6.6
		c0.8-0.8,1.6-1.6,2.4-2.3c0.1-0.1,0.2-0.2,0.4-0.4c0.1-0.1,0.1-0.1,0.2-0.2c0.1-0.1,0.1-0.1,0.1-0.2l0.1-0.1c1.2-1.7,2.8-3,4.5-4.2
		c0-0.4,0.1-0.6,0.1-0.9c0-0.1,0.1-0.3,0.1-0.4c0-0.5,0.1-1,0.1-1.4c0-0.1,0.1-0.2,0.1-0.3c0-0.4,0.1-0.9,0.1-1.3
		c0-0.1,0.1-0.3,0.1-0.4c0-0.4,0.1-0.8,0.1-1.2c0-0.1,0.1-0.3,0.1-0.4c0-0.4,0.1-0.7,0.1-1.2c0-0.2,0.1-0.4,0.1-0.6
		c0-0.4,0-0.9,0.1-1.3c0-0.2,0.1-0.5,0.1-0.7c0-0.4,0-0.8,0.1-1.2c0.4-2,0.7-4,1-6c0-0.1,0-0.1,0-0.1c0.4-1.2,0.8-2.4,1.3-3.7
		c0.1-0.1,0.1-0.3,0.1-0.4c0-0.1,0.1-0.2,0.1-0.4v-0.1c0,0,0,0,0.1,0c0-0.1,0.1-0.2,0.1-0.3v-0.1h0.1c0-0.1,0.1-0.2,0.1-0.3
		s0.1-0.1,0.1-0.1c0-0.1,0.1-0.2,0.1-0.3c0-0.1,0.1-0.1,0.1-0.2c0-0.1,0.1-0.2,0.1-0.4c0-0.1,0.1-0.1,0.1-0.1s0-0.2,0.1-0.3
		c0.1-0.1,0.1-0.1,0.1-0.2c0-0.1,0-0.2,0-0.4c0-0.1,0.1-0.1,0.1-0.1c0-0.1,0-0.3,0.1-0.4c0-0.1,0.1-0.1,0.1-0.1
		c0.1-0.4,0.2-0.8,0.3-1.2c0.5-1.3,1-2.6,1.5-3.9c0.4-1,0.8-2.1,1.2-3.2c-0.4,0-0.6,0-0.9,0c-13.2,0-26.4,0-39.6,0
		c-0.3,0-0.6-0.1-0.8-0.1c-0.4-2.2-0.9-4.4-1.3-6.6c-1.6-8.6-3.3-17.2-4.9-25.9c-0.1-0.2-0.1-0.5-0.1-0.8c3.8,0,7.6,0,11.4,0
		c1.9,0,3.8,0,5.7,0c1.8,0,3.6,0,5.4,0c2.3,0,4.5,0,6.8,0c1.2,0,2.5,0,3.7,0s2.5,0,3.7,0c1.5,0,3,0,4.4,0c1.7,0,3.3,0,5,0
		c2.3,0,4.6,0,6.9,0c1.1,0,2.2,0,3.2,0c1.2,0,2.3,0,3.5,0c2.8,0,5.6,0,8.4,0c1.8,0,3.5,0,5.3,0c2.6,0,5.2,0,7.8,0
		c2.8,0.1,5.5,0.1,8.2,0.2c1.3,0.1,2.6,0.1,4,0.1c-4,10.7-7.9,21.2-11.8,31.8c-1.1,4-2.3,8-3.4,12c-0.6,2.2-1.3,4.5-2,6.8
		c0,0.1-0.1,0.1-0.1,0.1s0,0.2-0.1,0.3c0,0.1-0.1,0.1-0.1,0.1c0,0.1-0.1,0.2-0.1,0.3c0,0.1-0.1,0.2-0.1,0.3c0,0.1,0,0.2,0,0.3
		c-0.1,0.1-0.1,0.1-0.1,0.1c-0.5,1.8-1,3.6-1.5,5.4c-0.1,0.6-0.4,1.2-0.6,1.7c-0.7,2.5-1.5,5.1-2.1,7.6c-0.4,1.3-0.4,2.7-0.5,4
		c-0.4,4.1-0.6,8.2-2.5,12c-0.1,0.1-0.1,0.2-0.2,0.3c-1.9,3.7-4.5,6.9-8.1,9.1c-1.4,1.5-1.3,1.4-1,3.8c0.2,1.7,0.4,3.3,0.1,5
		c-0.2,1.6-0.1,3.2-0.1,4.8c0.2,3.2-0.4,6.1-1.8,9c-0.3,0.6-0.6,1.2-0.9,1.8c0,0.1,0,0.3,0,0.4c0,0.1,0,0.3,0,0.4c0,0.1,0,0.2,0,0.3
		c0,0.1,0,0.1,0,0.1c-0.2,3.7-1.1,7.3-2.6,10.7c-0.1,0.3-0.4,0.6-0.5,0.9c-0.1,0.1-0.1,0.3-0.2,0.4c-0.1,0.1-0.1,0.1-0.1,0.2
		c-1,1.8-2.3,3.3-3.7,4.8c-1.1,1.1-2,2.2-3,3.2c-0.3,0.3-0.6,0.5-0.8,0.8c-1.3,0.9-2.5,1.9-3.8,2.9c-0.9,0.5-1.9,1-2.8,1.4
		c-0.9,1.1-1.8,2.1-2.6,3.1c-1.1,0.9-2.3,1.9-3.3,2.9c-1.2,0.6-2.5,1.4-3.7,2l0,0c-0.1,0-0.1,0.1-0.1,0.1c-1.3,0.4-2.5,0.8-3.8,1.2
		c-1.5,0.3-3,0.6-4.4,0.9c-0.2,0.1-0.4,0.1-0.6,0.1c-1.3,0.1-2.5,0.2-3.7,0.3c-3,0.1-6,0.1-9,0.1c-3.7-0.1-7.3-0.1-10.9-0.3
		c-0.4,0-0.8-0.1-1.3-0.1c-2.1-0.4-4.2-0.6-6.4-1c-0.1-0.1-0.2-0.1-0.4-0.1c-0.1,0-0.1,0-0.2,0c-3.2-0.6-5.9-2.2-8.4-4.3l-0.1-0.1
		c0,0-0.1,0-0.1-0.1l-0.1-0.1l-0.1-0.1c-0.1,0-0.1-0.1-0.1-0.1l0,0c-0.1-0.1-0.1-0.1-0.1-0.1l0,0c-0.1-0.1-0.1-0.1-0.1-0.1l0,0
		c-0.1-0.1-0.1-0.1-0.1-0.1l0,0c-0.1-0.1-0.1-0.1-0.1-0.1l0,0c-0.1-0.1-0.1-0.1-0.1-0.1l0,0c0-0.1-0.1-0.1-0.1-0.1v-0.1
		c-0.1-0.1-0.1-0.1-0.1-0.1l-0.1-0.1c-0.1,0-0.1,0-0.1-0.1c-0.7-0.9-1.4-1.8-2.1-2.6c-0.2-0.3-0.6-0.4-0.9-0.6
		c-0.6-0.4-1.1-0.6-1.7-0.9c-0.2-0.1-0.4-0.2-0.6-0.3l0,0c-0.1-0.1-0.3-0.1-0.4-0.3c-2.2-1.4-4.1-3-5.8-5c-2.6-2.7-5.7-5-7.7-8.4
		c-0.1-0.2-0.3-0.5-0.4-0.8c-1.1-1.9-1.8-3.9-2-6c-0.1-1.4-0.1-2.9-0.2-4.3c-0.1-1-0.4-2-0.6-3c-0.4-2.4-0.3-4.8,0.1-7.3
		c0.1-0.7-0.1-1.6-0.2-2.3c-0.4-2.7-0.1-5.3,0.6-7.9c0.2-0.8,0.2-1.7,0.3-2.2c-0.7-1.7-1.8-2.5-3-3.3c-0.2-0.1-0.4-0.3-0.6-0.5
		c-1.2-1.2-2.4-2.2-3.5-3.5c-1.3-1.4-2.2-3.2-2.8-5l0,0c-0.1-0.1-0.1-0.2-0.1-0.3c-0.9-2.1-1.4-4.3-1.6-6.6
		c-0.1-2.2-0.4-4.2-0.5-6.4c-0.1-2.1-0.3-4.2-0.4-6.3c-0.1-1.4-0.2-2.8-0.4-4.2c-0.1-1.4-0.3-3-0.5-4.4c-0.2-1.9-0.4-4-0.8-5.9
		c-0.5-3-1-6-1.5-9c-0.3-1.6-0.6-3.2-0.9-4.8c0-0.1,0-0.4-0.1-0.5c0,0-0.1-0.1,0-0.1c-0.1-0.1-0.1-0.3-0.1-0.5c0-0.1,0-0.1,0-0.2
		c-0.1-0.1-0.1-0.4-0.1-0.5c0-0.1,0-0.1,0-0.1c-0.1-0.1-0.1-0.2-0.1-0.3c0-0.1,0-0.3-0.1-0.4c-0.1-0.1-0.1-0.3-0.1-0.5
		c-0.4-1.7-0.8-3.4-1.3-5c-1.3-4.5-2.6-8.9-3.9-13.3c-0.1-0.2-0.1-0.4-0.1-0.6c-0.1-0.1-0.1-0.3-0.1-0.4c0-0.1-0.1-0.2-0.1-0.3
		c-0.9-2.5-2-5-2.8-7.6c-1.1-3.8-2.9-7.3-4.7-10.7c-0.3-0.6-0.6-1.2-0.9-1.7c-1.3-2.4-2.7-4.8-4-7.2c-2.2-4.1-4.4-8.2-6.6-12.3
		c-0.4-0.8-0.8-1.6-1.1-2.4c-1.5-2.9-3-5.7-4.4-8.6c-1.8-3.6-3-7.4-3.8-11.3c-0.7-3.3-0.9-6.6-0.6-9.9c0.7-7,3.1-13.3,7.6-18.8
		c0.4-0.5,1-1,1.4-1.5c0.9-0.9,1.8-1.9,2.8-2.7c2.6-2.3,5.6-4.2,8.7-5.8c0.1-0.1,0.2-0.1,0.3-0.1c2.8-1.4,5.6-2.5,8.7-3.2
		c1.7-0.4,3.3-0.7,5-1.2c0.1-0.1,0.2-0.1,0.3-0.1c0.1,0,0.2,0,0.3,0c1.6-0.3,3.1-0.6,4.7-0.9c0.1-0.1,0.2-0.1,0.3-0.1
		c0.2,0,0.4,0,0.6-0.1c0.1,0,0.2-0.1,0.3-0.1c0.2,0,0.4,0,0.6,0c1.1-0.1,2-0.4,3.1-0.5c1.3-0.1,2.7-0.3,4-0.4c0.2,0,0.4-0.1,0.6-0.1
		c0.1,0,0.2-0.1,0.3-0.1c0.3,0,0.6-0.1,0.9-0.1c0.1,0,0.2,0,0.3-0.1c1.2-0.1,2.3-0.2,3.5-0.3c1.5-0.1,3-0.3,4.4-0.4
		c0.1,0,0.1,0,0.1,0c0.6-0.1,1.1-0.1,1.6-0.1c0.4-0.1,0.8-0.1,1.3-0.1c0.1,0,0.1,0,0.1,0c1.5-0.1,3-0.2,4.4-0.3
		c3.2-0.1,6.4-0.3,9.5-0.4c0.2,0,0.5,0,0.7,0c1.8-0.1,3.5-0.1,5.3-0.1c3.9-0.1,7.8-0.2,11.6-0.3c4.1,0,8.1,0,12.2,0
		c2.6,0,5.2,0,7.8,0c0.1,0,0.3,0.1,0.4,0.1c1.1,0.1,2.3,0.1,3.4,0.2c0.4,0.1,0.8,0.1,1.3,0.1c2.2,0.1,4.3,0.2,6.5,0.3
		c0.4,0.1,0.8,0.1,1.2,0.1c0.8,0.1,1.8,0.1,2.6,0.1c1.2,0.1,2.3,0.1,3.5,0.1c0.3,0.1,0.6,0.1,0.9,0.1c0.8,0.1,1.6,0.1,2.5,0.1
		c1.1,0.1,2,0.1,3.1,0.1c0.2,0,0.4,0,0.6,0.1c0.5,0,1,0.1,1.5,0.1c0.1,0,0.3,0,0.4,0.1c0.2,0,0.5,0.1,0.7,0.1
		c1.1,0.1,2.2,0.1,3.2,0.3c0.2,0,0.4,0,0.6,0c0.1,0,0.1,0,0.2,0.1c0.4,0,0.7,0.1,1.1,0.1c0.1,0,0.3,0.1,0.4,0.1c0.3,0,0.5,0,0.8,0
		c0.1,0,0.3,0.1,0.4,0.1c0.3,0,0.6,0,0.8,0.1c0.1,0,0.3,0.1,0.4,0.1c0.6,0.1,1.3,0.1,2,0.2c0.1,0,0.1,0.1,0.2,0.1
		c0.1,0,0.1,0,0.2,0.1c1.2,0.1,2.3,0.3,3.5,0.4c1.3,0.2,2.7,0.4,4,0.6c1.4,0.2,2.8,0.4,4.2,0.6c1.6,0.2,3.2,0.5,4.9,0.8
		c0.1,0,0.1,0.1,0.3,0.1c0.1,0,0.3,0,0.4,0c0.1,0,0.2,0.1,0.3,0.1c0.2,0,0.4,0.1,0.6,0.1c0,0,0.1,0,0.1,0.1c0.1,0,0.3,0,0.5,0.1
		c0.1,0,0.1,0.1,0.2,0.1c0.1,0,0.4,0,0.5,0.1c0.1,0,0.1,0.1,0.1,0.1c0.1,0,0.3,0,0.4,0.1c0.1,0.1,0.2,0.1,0.3,0.1
		c1.1,0.3,2.3,0.6,3.5,0.9c1,0.3,2,0.6,2.9,0.9c0.1,0.1,0.2,0.1,0.4,0.1c0.4,0.1,0.6,0.2,1,0.3c0.1,0.1,0.1,0.1,0.2,0.1
		c2.8,0.9,5.4,2.4,7.8,4c5.5,3.8,9.4,8.9,12.3,14.8c1.5,3,2.5,6.2,3,9.6c0.1,1.2,0.4,2.4,0.6,3.7C412.8,260.8,412,261.1,411.1,261.4
		z"/>
</g>
</svg>
