<svg version="1" xmlns="http://www.w3.org/2000/svg" width="933.333" height="933.333" viewBox="0 0 700.000000 700.000000"><path d="M327 .6c-51.8 4.7-89.4 14.8-130.5 34.9C95 85.2 23.6 180.5 5.1 290.7 1.3 313.5.5 323.2.5 350c0 48.2 7.3 86.6 24.7 130.5 36 90.5 111.4 163.9 203.3 197.8 27.2 10 52.2 15.9 84.5 19.9 13.8 1.7 60.1 1.7 74 0 44.2-5.4 79.2-15.5 115.5-33.2 37.1-18.1 64.3-37.7 94.6-67.9 30.2-30.3 49.8-57.6 67.9-94.6 17.1-35.2 26.7-67.7 32.6-110.5 2.8-19.7 2.5-64.3-.4-86-8.9-65.9-33.6-123.8-75.1-176-10.2-12.9-40.1-42.7-53.6-53.4-51-40.5-108.8-65-173.9-73.7C380.1 1 338.6-.4 327 .6zM374 60c41.3 2.2 78.2 8.1 99.2 15.6 24.7 9 42.2 26.5 49 49.2 3.1 10.4 3.5 27.4 1 38.8-2.4 10.7-23.8 68.1-28.8 77.1-7.5 13.5-22.7 20.5-34.2 15.8-4.4-1.9-6.2-3.5-16.5-14.9l-8-8.9 9.5-6.1c15.4-10 13.6-7.3 25.1-37.7 12.8-34 13.1-34.8 12.5-45.2-.5-9.5-3-15-9.3-20.6-13.7-12-48.6-18.9-109.5-21.7-25.4-1.1-77.1 2.6-99.5 7.1-35 7.1-47.5 16.9-47.5 37.5 0 9 1.3 13.5 13.1 44.4l10.3 26.9 11.6 7.5c6.3 4.1 11.7 7.6 11.9 7.8.2.2-1.6 2.5-4.1 5.2-8.4 8.9-8.3 8.8-5.4 18.9 15.6 54.7 26.3 125.5 29.5 196l.7 17.1 6.9 7.4c3.7 4 8.3 9.6 10.1 12.3l3.4 5.1.4 22.9c.5 26.4 1.8 38.5 5.3 50.5 6.2 21.5 17.2 32.5 35.4 35.3 12.9 2 25.7-1.5 33.3-9.1 10.6-10.5 14.2-27.4 15.2-71.2.7-30.1.4-29.1 12.5-43.4l8.3-10 1.2-23.5c1.2-22.4 3.3-47.9 5.4-65.6.6-4.4 1-9.2 1-10.7V367h-85.6l-2.2-18.8c-1.2-10.3-2.2-19.7-2.2-21V325h69.5c38.2 0 69.5.2 69.5.5 0 .2-1.1 7.8-2.5 16.7-5.7 37.5-9.6 77.1-11.5 114.8-.6 11.8-1.4 22.6-1.7 24-1.1 4.5-4.5 10.4-9.2 16-10.1 11.7-9.8 10.8-10.5 34.6-1.6 58.1-11.7 84.7-37.6 99.2-16.3 9.1-48.6 12.5-72.6 7.6-41-8.3-60.1-42-62.9-111.1-.4-8.1-.8-15.8-1.1-17-.2-1.2-3.6-6.2-7.5-11-10-12.4-11-15-12-31.3-.5-7.4-1.3-21.4-1.9-31-1.3-21.6-5.4-61.9-8.1-80-3.2-21.7-11.4-60.9-17.3-82.5-5.1-19-5.3-20.2-3.9-23.5.8-1.9 1.6-4 1.8-4.5.2-.6-1.5-2.4-3.8-4-5.3-3.8-7.2-7.8-19.5-40-12.1-32-14.2-39.3-14.9-52.5-1.1-19.9 5.1-38.4 17.2-51.8 10.3-11.4 29.4-22.3 46.6-26.6 10.2-2.5 43.2-7.3 66.4-9.5 33.4-3.3 41.8-3.5 68.5-2.1z"/></svg>