<svg version="1" xmlns="http://www.w3.org/2000/svg" width="933.333" height="933.333" viewBox="0 0 700.000000 700.000000"><path d="M329.8.5c-.2.1-4.1.5-8.8.9-10 .7-22.5 2.2-29.5 3.6-2.7.5-6.1 1.2-7.5 1.4-19.8 3.6-50.3 12.6-65.7 19.3-2.1.9-4 1.7-4.3 1.8-6.1 1.4-37.9 18.3-55 29.3-8 5.2-31.9 22.7-33 24.3-.3.3-2.5 2.3-5 4.4-8.4 6.9-22.9 21.4-36.5 36.5-9.3 10.3-28.7 37.4-35.5 49.5-15.3 27.2-21.9 41.4-30.1 65.2-3.3 9.6-8.2 26.6-9.4 32.1-.2.9-.8 3.7-1.4 6.2-1.1 4.9-1.3 6.3-3.5 19.5-3.4 20.4-4 30.2-4 57 0 25.1 1.3 40.5 4.8 59 .2 1.1.6 3.6 1 5.5 4.9 27.2 15.5 59.4 28.2 85.7 3.2 6.5 7.7 15.1 10.1 19.1 2.4 4.1 4.3 7.5 4.3 7.7 0 .2 3 5 6.7 10.7C98.4 605.4 162 655.3 236.5 681.1c6.1 2.1 12.8 4.2 15 4.8 2.2.5 8.5 2.1 14 3.6 11.5 3 28.2 6.2 37 7.1 3.3.3 6.3.8 6.6.9 1.5 1 22.7 2 40.9 2 18.8 0 34.1-.8 43-2.1 14.4-2.1 29.5-4.8 34.5-6.1 3.3-.8 6.7-1.6 7.5-1.8 11.3-2.3 37.8-11.4 54.9-18.8 12-5.1 30.7-14.6 35.3-17.8 1.4-1.1 2.9-1.9 3.3-1.9 1.3 0 26.8-17.4 36.7-25.1 17.7-13.7 32.7-28.1 51.4-49.1 4-4.5 22.1-28.4 23.6-31.1.6-1.1 1.5-2.6 2-3.1 6.4-7.8 21.9-37 31-58.6 10.8-25.4 21-63.1 23.4-86.1.3-3.5.8-6.7 1-7 .9-1.7 1.9-21.4 1.8-39.9 0-18.8-.6-33.1-1.9-42-.3-1.9-.7-5.6-1-8.1-.3-2.5-.7-5.4-.9-6.5-.2-1-1.1-6-2.1-10.9-10.8-57.9-37.9-114.4-76.8-160-12.7-14.9-32.8-34.6-46-45-2.1-1.7-4.4-3.5-5-4.1-5.8-5.1-27.2-19.6-40.7-27.4-30.7-17.9-67.7-32.1-102.7-39.4-9.8-2.1-24.3-4.3-39.3-6.1-5.4-.7-52.6-1.6-53.2-1z"/></svg>