<?xml version="1.0" encoding="utf-8"?>
<!-- Generator: Adobe Illustrator 19.2.1, SVG Export Plug-In . SVG Version: 6.00 Build 0)  -->
<svg version="1.2" baseProfile="tiny" id="Layer_1" xmlns="http://www.w3.org/2000/svg" xmlns:xlink="http://www.w3.org/1999/xlink"
	 x="0px" y="0px" viewBox="0 0 50.8 50.8" xml:space="preserve">
<g>
	<path fill="none" stroke="#000000" stroke-width="0.8" stroke-miterlimit="10" d="M32.8,35.8c0,0.5,0,1.2,0,1.9c0,1,0,2.2,0,3.2
		c0,1.1,0,2.2,0,2.9c0,0.3,0,0.5,0,0.7c0.1,1.9-2.4,3.4-4.3,3.9c-2,0.5-0.7,2-3.5,2c-2.8,0-1.5-1.5-3.4-2c-1.6-0.5-3.7-1.6-4.2-3.1
		c-0.1-0.3-0.1-0.5-0.1-0.8c0-0.5,0.1-1.2,0.1-2.1v0c0-1,0-2.1,0-3.2c0-1.1,0-2.1,0-2.9v0"/>
	<g id="XMLID_23_">
		<path id="XMLID_26_" fill="none" stroke="#000000" stroke-width="0.8" stroke-linecap="round" stroke-miterlimit="10" d="
			M16.5,44.9c0.7,0.3,8.6,2.6,17.1-1.5"/>
		<path id="XMLID_25_" fill="none" stroke="#000000" stroke-width="0.8" stroke-linecap="round" stroke-miterlimit="10" d="M16.5,42
			c0.7,0.3,8.6,2.6,17.1-1.4"/>
		<path id="XMLID_24_" fill="none" stroke="#000000" stroke-width="0.8" stroke-linecap="round" stroke-miterlimit="10" d="
			M16.5,38.8c0.7,0.3,8.6,2.6,17.1-1.4"/>
	</g>
	<path id="XMLID_22_" fill="none" stroke="#000000" stroke-width="0.8" stroke-miterlimit="10" d="M13.6,28.4c0,0,1.9,2.8,1.8,6.5
		c0,0,8.9,7.4,18.6,0.1c0,0,0.3-3.6,2.6-6.5"/>
	<path id="XMLID_21_" fill="none" stroke="#000000" stroke-width="0.6" stroke-miterlimit="10" d="M40.9,9.8c0,0,0.1,12.1-4.2,18.7
		c0,0-10.3,6.9-23-0.1c0,0-3.8-5.6-3.8-18.8"/>
	<path fill="none" stroke="#000000" stroke-width="0.6" stroke-miterlimit="10" d="M18,12.7c0.3,3.9,1.5,12.7,7.3,12.7
		c6,0,7.2-9,7.4-12.6"/>
	
		<ellipse id="XMLID_20_" transform="matrix(5.431075e-03 -1 1 5.431075e-03 18.3654 32.2565)" fill="none" stroke="#000000" stroke-width="0.8" stroke-miterlimit="10" cx="25.4" cy="6.9" rx="6.5" ry="17.2"/>
	
		<ellipse id="XMLID_19_" transform="matrix(5.487381e-03 -1 1 5.487381e-03 18.4118 31.9424)" fill="none" stroke="#000000" stroke-width="0.4" stroke-miterlimit="10" cx="25.3" cy="6.7" rx="3.7" ry="11.5"/>
</g>
</svg>
