<?xml version="1.0" encoding="utf-8"?>
<!-- Generator: Adobe Illustrator 19.2.1, SVG Export Plug-In . SVG Version: 6.00 Build 0)  -->
<svg version="1.2" baseProfile="tiny" id="Layer_1" xmlns="http://www.w3.org/2000/svg" xmlns:xlink="http://www.w3.org/1999/xlink"
	 x="0px" y="0px" viewBox="0 0 50.2 50.2" xml:space="preserve">
<path fill="none" stroke="#1D1D1A" stroke-width="0.2437" stroke-miterlimit="10" d="M30.3,24.3c-1.5-0.4-7.8-2.2-10.5-2.4l-4.1,0
	l-4.1,0c-2.7,0.2-9,2-10.5,2.4c-1.5,0.4-0.8,0.8-0.5,1C1.2,25.7,9.2,31,15.7,31c6.5,0,14.5-5.3,15.1-5.8
	C31.1,25,31.8,24.6,30.3,24.3z"/>
<line fill="none" stroke="#1D1D1A" stroke-width="0.2437" stroke-miterlimit="10" x1="1.3" y1="24.2" x2="30.1" y2="24.2"/>
<line fill="none" stroke="#1D1D1A" stroke-width="0.2437" stroke-miterlimit="10" x1="1" y1="25.5" x2="30.4" y2="25.5"/>
<path fill="none" stroke="#1D1D1A" stroke-width="0.2437" stroke-miterlimit="10" d="M39.8,30.9c2.6,0.7,4.9-1.2,5.9-2
	c1-0.8,3.5-2.9,4.2-3.6c0.5-0.5,0.5-0.9-0.7-1.3c-1.2-0.5-5.7-2.5-8.3-2.4c-2.6,0.1-3.3,0.5-4.3,0.9c-1,0.4-3.8,1.6-4.3,1.8
	c-0.5,0.2-0.8,0.5-0.1,1.3s3.7,3.5,4.6,4C37.6,30.1,38.4,30.5,39.8,30.9z"/>
<line fill="none" stroke="#1D1D1A" stroke-width="0.2437" stroke-miterlimit="10" x1="32.1" y1="25.5" x2="49.6" y2="25.5"/>
<line fill="none" stroke="#1D1D1A" stroke-width="0.2437" stroke-miterlimit="10" x1="32.5" y1="24.1" x2="49.4" y2="24"/>
<path fill="none" stroke="#1D1D1A" stroke-width="0.2437" stroke-miterlimit="10" d="M13.5,19.2c3.9,1.3,9,2.1,14.5,2.1
	s10.6-0.8,14.5-2.1H13.5z"/>
<line fill="none" stroke="#1D1D1A" stroke-width="0.2437" stroke-miterlimit="10" x1="14.8" y1="21.8" x2="14.8" y2="19.6"/>
<line fill="none" stroke="#1D1D1A" stroke-width="0.2437" stroke-miterlimit="10" x1="38.5" y1="21.7" x2="38.5" y2="20.3"/>
<line fill="none" stroke="#1D1D1A" stroke-width="0.2437" stroke-miterlimit="10" x1="40.9" y1="21.5" x2="40.9" y2="19.7"/>
<line fill="none" stroke="#1D1D1A" stroke-width="0.2437" stroke-miterlimit="10" x1="17.2" y1="20.3" x2="17.2" y2="21.9"/>
</svg>
