<?xml version="1.0" standalone="no"?>
<!DOCTYPE svg PUBLIC "-//W3C//DTD SVG 20010904//EN"
 "http://www.w3.org/TR/2001/REC-SVG-20010904/DTD/svg10.dtd">
<svg version="1.0" xmlns="http://www.w3.org/2000/svg"
 width="558.000000pt" height="558.000000pt" viewBox="0 0 558.000000 558.000000"
 preserveAspectRatio="xMidYMid meet">
<metadata>
Created by potrace 1.11, written by Peter Selinger 2001-2013
</metadata>
<g transform="translate(0.000000,558.000000) scale(0.100000,-0.100000)"
fill="#000000" stroke="none">
<path d="M2378 5545 c-2 -2 -86 -6 -188 -10 -102 -4 -203 -8 -225 -10 -140
-11 -195 -16 -230 -21 -22 -2 -60 -7 -85 -10 -40 -4 -158 -23 -245 -39 -16 -3
-73 -17 -125 -30 -375 -94 -633 -345 -706 -689 -43 -202 -4 -429 112 -661 60
-118 207 -399 214 -410 13 -18 92 -167 140 -264 46 -92 156 -404 199 -561 33
-123 73 -330 91 -475 6 -44 13 -87 15 -95 4 -17 15 -129 20 -215 2 -33 7 -87
10 -120 3 -33 7 -87 10 -120 14 -167 71 -299 171 -400 l63 -63 -7 -49 c-16
-109 2 -453 29 -558 12 -47 60 -144 86 -175 60 -71 233 -234 286 -269 35 -22
73 -54 85 -70 30 -41 128 -113 187 -138 44 -18 119 -36 245 -59 46 -8 465 -7
533 1 167 21 302 80 397 175 36 36 88 80 117 98 70 45 222 204 265 279 38 64
72 171 84 263 4 30 12 66 19 80 26 52 43 167 43 298 l1 133 52 52 c125 124
171 242 193 492 3 28 28 131 56 230 28 99 53 187 55 195 23 94 115 395 145
474 125 329 186 499 195 543 14 68 -30 133 -101 149 -36 8 -1893 15 -1952 7
-52 -7 -92 -38 -107 -84 -11 -32 -8 -57 39 -294 10 -51 46 -244 51 -275 35
-211 56 -260 120 -279 17 -4 184 -8 373 -7 188 1 342 -3 342 -7 0 -5 -11 -41
-24 -80 -23 -67 -44 -140 -51 -179 -2 -9 -6 -54 -10 -100 -11 -156 -9 -151
-91 -235 -101 -104 -141 -179 -169 -313 -2 -8 -12 -43 -24 -77 -33 -98 -35
-121 -31 -341 1 -68 0 -124 -2 -126 -1 -1 -33 -21 -69 -45 -37 -23 -75 -53
-85 -67 -17 -22 -25 -24 -106 -24 -94 0 -85 -4 -171 72 -16 15 -39 30 -49 34
-21 6 -21 5 -17 104 4 146 1 209 -16 267 -9 32 -19 86 -20 119 -6 99 -47 235
-82 272 -7 7 -13 16 -13 20 0 7 -57 71 -126 142 -36 38 -35 33 -49 221 -3 42
-7 85 -9 95 -2 11 -7 44 -10 74 -4 30 -8 66 -11 80 -8 51 -36 216 -41 245 -3
17 -7 37 -9 45 -2 8 -7 31 -10 50 -27 159 -95 410 -169 621 -68 198 -236 556
-445 953 -62 118 -65 133 -26 137 6 0 18 2 27 4 9 2 34 6 55 9 21 3 52 8 68
10 85 14 188 26 250 31 39 3 92 7 118 10 117 9 464 18 722 18 245 0 362 -4
570 -18 28 -2 91 -6 140 -10 95 -6 180 -13 230 -20 284 -36 286 -37 393 -59
50 -11 58 -17 74 -63 29 -79 76 -153 106 -164 63 -25 60 -26 287 55 72 26 150
54 175 62 25 8 54 19 65 23 11 5 54 21 96 36 141 48 151 81 103 305 -61 275
-299 538 -569 625 -44 15 -143 40 -200 51 -11 2 -31 6 -45 9 -14 3 -41 8 -60
11 -19 2 -57 9 -85 14 -27 5 -93 14 -145 20 -52 6 -111 13 -130 16 -19 3 -62
7 -95 9 -33 3 -85 7 -115 10 -30 2 -108 7 -173 11 -66 3 -138 8 -160 10 -45 5
-835 13 -839 9z"/>
</g>
</svg>
