<?xml version="1.0" standalone="no"?>
<!DOCTYPE svg PUBLIC "-//W3C//DTD SVG 20010904//EN"
 "http://www.w3.org/TR/2001/REC-SVG-20010904/DTD/svg10.dtd">
<svg version="1.0" xmlns="http://www.w3.org/2000/svg"
 width="260.000000pt" height="260.000000pt" viewBox="0 0 260.000000 260.000000"
 preserveAspectRatio="xMidYMid meet">
<metadata>
Created by potrace 1.11, written by Peter Selinger 2001-2013
</metadata>
<g transform="translate(0.000000,260.000000) scale(0.100000,-0.100000)"
fill="#000000" stroke="none">
<path d="M1200 2559 c-305 -32 -587 -215 -701 -454 -66 -138 -74 -290 -25
-454 27 -89 35 -105 140 -276 81 -131 185 -336 214 -420 11 -33 25 -103 31
-155 16 -129 27 -168 62 -213 20 -24 28 -44 24 -56 -3 -10 -2 -36 3 -58 5 -23
5 -47 -1 -60 -6 -14 -6 -36 0 -60 6 -24 6 -48 0 -64 -15 -41 17 -114 58 -133
18 -9 40 -16 48 -16 9 0 37 -16 63 -36 85 -65 127 -79 239 -79 112 0 154 14
239 79 26 20 54 36 63 36 28 0 80 31 90 53 6 12 9 95 8 187 l-2 165 32 38 c37
43 50 84 66 207 6 47 22 119 35 160 34 102 139 313 220 440 121 191 154 282
154 433 0 150 -53 288 -157 409 -78 90 -157 149 -285 214 -138 69 -260 106
-355 106 -40 0 -75 4 -79 9 -6 11 -65 10 -184 -2z m764 -220 c63 -58 55 -77
-10 -20 -25 22 -80 60 -120 83 -40 24 -76 49 -79 56 -9 24 157 -71 209 -119z
m-419 66 c243 -51 428 -182 522 -371 43 -87 45 -95 45 -177 0 -92 -18 -171
-58 -249 -13 -26 -24 -50 -23 -53 0 -4 -7 -17 -16 -31 -9 -14 -14 -28 -12 -31
6 -5 -7 -30 -88 -169 -57 -97 -101 -187 -130 -271 -16 -44 -21 -51 -34 -40
-12 10 -14 9 -8 -5 4 -10 2 -18 -4 -18 -6 0 -9 -7 -5 -15 3 -8 0 -15 -5 -15
-6 0 -9 -9 -6 -20 3 -11 1 -20 -5 -20 -6 0 -8 -9 -5 -20 3 -11 2 -20 -2 -20
-5 0 -11 -37 -15 -82 -10 -126 -13 -128 -150 -128 l-114 0 -1 137 c-1 76 -4
179 -7 230 -4 50 -4 102 0 116 4 17 29 38 83 70 133 78 257 197 303 293 24 49
26 116 3 154 -18 31 -85 74 -98 62 -5 -4 -5 -2 -2 4 8 14 -23 24 -79 24 -67 0
-138 -43 -194 -117 -27 -36 -47 -69 -44 -74 3 -5 0 -9 -6 -9 -6 0 -8 -4 -5
-10 3 -5 1 -10 -6 -10 -7 0 -10 -3 -6 -6 3 -3 -2 -14 -11 -25 -16 -18 -17 -17
-45 29 -42 68 -74 99 -143 138 -69 39 -113 43 -164 15 -52 -27 -80 -83 -80
-158 0 -140 74 -242 237 -326 50 -26 94 -55 98 -64 3 -10 9 -120 12 -246 l6
-227 -126 0 -125 0 -10 32 c-6 18 -13 64 -17 102 -13 147 -105 370 -255 616
-45 74 -95 161 -111 193 -156 328 88 699 521 791 87 19 297 19 385 1z m280
-24 c65 -37 152 -115 172 -155 12 -25 2 -18 -53 35 -38 36 -95 83 -126 104
-32 21 -58 39 -58 41 0 9 18 2 65 -25z m-58 -763 c-2 -13 -4 -3 -4 22 0 25 2
35 4 23 2 -13 2 -33 0 -45z m-104 -4 c30 -11 4 -59 -73 -136 -43 -43 -82 -78
-88 -78 -29 0 44 146 95 191 35 30 42 33 66 23z m-499 -97 c14 -18 37 -58 51
-90 21 -45 24 -60 15 -77 -13 -25 -12 -25 -61 7 -68 45 -112 146 -77 181 21
21 46 13 72 -21z m775 -258 c-92 -185 -134 -296 -148 -389 -6 -41 -15 -100
-20 -130 -9 -49 -9 -46 -4 30 7 117 27 215 58 291 56 135 172 355 182 346 2
-3 -28 -69 -68 -148z"/>
</g>
</svg>
