<?xml version="1.0" standalone="no"?>
<!DOCTYPE svg PUBLIC "-//W3C//DTD SVG 20010904//EN"
 "http://www.w3.org/TR/2001/REC-SVG-20010904/DTD/svg10.dtd">
<svg version="1.0" xmlns="http://www.w3.org/2000/svg"
 width="260.000000pt" height="260.000000pt" viewBox="0 0 260.000000 260.000000"
 preserveAspectRatio="xMidYMid meet">
<metadata>
Created by potrace 1.11, written by Peter Selinger 2001-2013
</metadata>
<g transform="translate(0.000000,260.000000) scale(0.100000,-0.100000)"
fill="#000000" stroke="none">
<path d="M940 2554 c-335 -29 -443 -59 -540 -150 -91 -85 -129 -211 -100 -335
13 -56 138 -309 170 -344 43 -48 146 -350 179 -525 11 -63 27 -186 35 -272 16
-170 24 -194 81 -250 l37 -36 2 -148 c3 -177 10 -197 96 -276 189 -173 188
-173 395 -173 186 0 226 9 287 65 24 21 69 62 101 92 33 29 65 64 72 79 25 48
55 193 58 280 2 84 3 87 35 114 36 30 66 82 76 130 3 17 11 91 17 165 16 198
66 426 133 606 31 83 56 158 56 167 0 9 -7 23 -16 31 -14 14 -68 16 -444 16
-247 0 -439 -4 -454 -10 -49 -18 -50 -39 -8 -164 21 -63 45 -122 52 -131 10
-13 46 -15 236 -15 123 0 224 -3 224 -8 0 -4 -13 -68 -30 -143 -16 -74 -35
-196 -43 -271 l-13 -136 -47 -49 c-29 -29 -52 -63 -58 -88 -6 -22 -17 -57 -25
-77 -8 -21 -13 -73 -12 -125 1 -109 -5 -128 -41 -143 -16 -6 -41 -25 -57 -41
-25 -26 -34 -29 -94 -29 -60 0 -69 3 -94 29 -16 16 -42 35 -58 42 l-30 12 5
76 c3 42 1 96 -4 121 -30 164 -29 160 -85 221 -51 55 -54 62 -54 110 0 125
-59 428 -117 599 -19 58 -86 209 -149 336 -63 127 -114 236 -114 242 0 40 153
68 458 84 251 13 535 2 755 -28 150 -21 178 -31 202 -77 11 -20 28 -40 38 -43
28 -9 209 54 235 83 26 28 23 50 -14 128 -71 152 -171 200 -502 241 -121 15
-719 28 -832 18z"/>
</g>
</svg>
