<?xml version="1.0" encoding="utf-8"?>
<!-- Generator: Adobe Illustrator 19.2.1, SVG Export Plug-In . SVG Version: 6.00 Build 0)  -->
<svg version="1.2" baseProfile="tiny" id="Layer_1" xmlns="http://www.w3.org/2000/svg" xmlns:xlink="http://www.w3.org/1999/xlink"
	 x="0px" y="0px" viewBox="0 0 24 24" xml:space="preserve">
<g>
	<path fill="none" d="M9.9,14.2c2.5,2.3,5,3.6,5.7,2.9c0.6-0.7-0.9-3.1-3.3-5.4c-2.5-2.3-5-3.6-5.7-2.9C5.9,9.5,7.4,11.9,9.9,14.2z"
		/>
	<path fill="#010202" d="M2.6,20.6L2.6,20.6c0.2,0.8,0.9,1.3,1.6,1.5c0.6,0.1,1,0,2.6-0.2c1.3-0.2,2.9,0,3.5,0
		c-3.7-2.1-6.4-5.1-8-7.4c0.1,0.7,0.3,2.1,0.3,3.4C2.6,19.6,2.4,20,2.6,20.6z"/>
	<path fill="#010202" d="M1.6,11.1c0.2,0.7,4.1,8.2,12.1,11.3l3.9,0.7c-3-1.4-6.5-3.8-9.7-6.8C5,13.5,2.4,10.4,0.8,7.6
		C1,8.6,1.5,10.6,1.6,11.1z"/>
	<path fill="#010202" d="M14.9,8.6C7.8,1.9,2.1-0.5,0.4,1.3c-0.9,0.9-0.3,3,1.2,5.6C1.1,5.6,1,4.4,1.7,3.6c0.3-0.4,0.9-0.8,2-0.8
		c2.6,0,6.6,2.4,10.8,6.3c3.6,3.4,9,9.8,6.8,12.3c-0.3,0.3-0.8,0.7-1.8,0.7c-0.7,0-1.5-0.2-2.5-0.6c3.1,1.6,5.7,2.2,6.6,1.2
		C25.3,20.9,21.2,14.3,14.9,8.6z"/>
	<path fill="#010202" d="M9,15.1c4,3.6,8.3,6,10.5,6c0.5,0,0.8-0.1,1.1-0.4c1.2-1.4-2-6.3-6.8-10.9C9.5,5.8,5.8,3.9,3.7,3.9
		c-0.6,0-1,0.2-1.3,0.4C1.2,5.7,4.2,10.7,9,15.1z M6.5,8.8c0.6-0.7,3.2,0.6,5.7,2.9c2.5,2.3,4,4.7,3.3,5.4c-0.6,0.7-3.2-0.6-5.7-2.9
		C7.4,11.9,5.9,9.5,6.5,8.8z"/>
</g>
</svg>
