<?xml version="1.0" encoding="utf-8"?>
<!-- Generator: Adobe Illustrator 19.2.1, SVG Export Plug-In . SVG Version: 6.00 Build 0)  -->
<svg version="1.2" baseProfile="tiny" id="Layer_1" xmlns="http://www.w3.org/2000/svg" xmlns:xlink="http://www.w3.org/1999/xlink"
	 x="0px" y="0px" viewBox="0 0 24 24" xml:space="preserve">
<path fill="#010202" d="M5.8,18.2L5.8,18.2L5.8,18.2c-0.7-0.7-1.3-1.4-1.8-2l-3.8,4.1c0,0-0.5,0.5,0.1,0.7c0.6,0.2,2.5,0.9,7.3,0.6
	c0.7,0,1.8-0.1,2.3-0.4C8.1,20.2,6.7,19,6,18.4L5.8,18.2z"/>
<path fill="#010202" d="M1.9,5c-0.7,2.9-0.6,7.5,4.6,12.6c1.2,1.1,5,4.6,10.1,5.1c1.8,0.2,2.8,0,4.3-0.6c0,0,0,0,0,0
	c-3.3-0.4-8.1-3-11.8-6.6C5.2,11.9,2.6,8,1.9,5"/>
<path fill="#010202" d="M17,8.1C11.6,2.9,5.3-0.1,3.4,1.8c-2.1,2,0.8,7.8,6.3,13.1c5.5,5.2,11.9,7.4,13.7,5.8
	C25.3,18.9,22.5,13.3,17,8.1 M20.3,17.6c-1.3,1.1-5.4-0.5-9.1-4c-3.7-3.6-5.9-7.4-4.5-8.9C7.9,3.5,12.2,5.5,16,9
	S21.6,16.5,20.3,17.6"/>
</svg>
