<?xml version="1.0" encoding="utf-8"?>
<!-- Generator: Adobe Illustrator 19.2.1, SVG Export Plug-In . SVG Version: 6.00 Build 0)  -->
<svg version="1.2" baseProfile="tiny" id="Layer_1" xmlns="http://www.w3.org/2000/svg" xmlns:xlink="http://www.w3.org/1999/xlink"
	 x="0px" y="0px" viewBox="0 0 24 24" xml:space="preserve">
<path d="M19.962,2.085C19.401,0.772,16.511,0,12.003,0C7.492,0,4.6,0.773,4.043,2.089C5.242,2.178,11.851,2.61,19.962,2.085z"/>
<path d="M12,20.19L12,20.19c-0.233,0-0.486-0.016-0.741-0.034c-0.42-0.018-0.839-0.05-1.258-0.098c0.01,0.741,0.028,2.206,0,2.622
	c-0.018,0.284,0.518,0.614,1.032,0.745c0.428,0.111,0.569,0.345,0.652,0.485c0.014,0.023,0.033,0.055,0.038,0.06
	c0.001,0,0.063,0.03,0.277,0.031h0c0.214-0.002,0.276-0.031,0.277-0.031c0.005-0.006,0.024-0.037,0.037-0.06
	c0.084-0.14,0.224-0.374,0.652-0.485c0.514-0.131,1.05-0.461,1.032-0.745c-0.029-0.415-0.01-1.88,0-2.622
	c-0.42,0.048-0.84,0.08-1.261,0.098C12.484,20.175,12.231,20.19,12,20.19z"/>
<path d="M19.996,3.084c-2.953,0.19-5.714,0.257-8.089,0.257c-4.095,0-7.043-0.19-7.898-0.253C3.968,4.201,4.084,4.666,5.32,6.025
	l0.479,0.526C7.508,8.427,8.483,9.511,8.642,10c0.157,0.481,0.454,2.341,0.454,5.936c0,2.228,0.179,2.777,0.448,3.066
	c1.629,0.243,3.291,0.243,4.918-0.001c0.268-0.289,0.447-0.84,0.447-3.065c0-3.595,0.297-5.454,0.454-5.936
	c0.159-0.489,1.134-1.573,2.843-3.449l0.479-0.526C19.923,4.664,20.037,4.2,19.996,3.084z"/>
</svg>
