<?xml version="1.0" encoding="utf-8"?>
<!-- Generator: Adobe Illustrator 19.2.1, SVG Export Plug-In . SVG Version: 6.00 Build 0)  -->
<svg version="1.2" baseProfile="tiny" id="Layer_1" xmlns="http://www.w3.org/2000/svg" xmlns:xlink="http://www.w3.org/1999/xlink"
	 x="0px" y="0px" viewBox="0 0 24 24" xml:space="preserve">
<path d="M10.495,24.005H9.499C9.223,24.005,9,23.78,9,23.504v-0.772c0-0.276,0.223-0.501,0.499-0.501h0.997
	c0.276,0,0.501,0.225,0.501,0.501v0.772C10.996,23.78,10.771,24.005,10.495,24.005z"/>
<path d="M14.497,24.005h-0.997c-0.276,0-0.499-0.225-0.499-0.501v-0.772c0-0.276,0.223-0.501,0.499-0.501h0.997
	c0.276,0,0.501,0.225,0.501,0.501v0.772C14.998,23.78,14.773,24.005,14.497,24.005z"/>
<g>
	<path d="M11.995,0.006C7.579,0.006,4,1.351,4,3.011c0,1.66,3.58,3.005,7.995,3.005c4.416,0,7.995-1.345,7.995-3.005
		C19.99,1.351,16.411,0.006,11.995,0.006z M11.995,4.715c-2.959,0-5.358-0.806-5.358-1.8c0-0.994,2.399-1.8,5.358-1.8
		c2.959,0,5.358,0.805,5.358,1.8C17.353,3.909,14.954,4.715,11.995,4.715z"/>
</g>
<path d="M12,12c-2.754,0-3.221-3.542-3.296-5.293c-1.55-0.262-2.939-0.702-3.91-1.332c0.122,1.703,0.448,5.096,1.191,6.524
	C6.825,13.515,8,15.216,8,15.216v5.135c0,0,1.229,1.631,4,1.65c2.771-0.019,4-1.65,4-1.65v-5.135c0,0,1.175-1.701,2.015-3.317
	c0.679-1.304,0.955-4.249,1.065-6.047c-1.048,0.468-2.373,0.785-3.785,0.968C15.215,8.602,14.691,12,12,12z"/>
<path d="M12,11c0.464,0,0.848-0.152,1.161-0.469c0.791-0.802,1.059-2.424,1.129-3.607c-0.635,0.051-1.658,0.079-2.295,0.079
	c-0.889,0-1.411-0.052-2.284-0.152c0.071,1.188,0.347,2.855,1.158,3.674C11.186,10.846,11.531,11,12,11z"/>
</svg>
