<?xml version="1.0" standalone="no"?>
<!DOCTYPE svg PUBLIC "-//W3C//DTD SVG 20010904//EN"
 "http://www.w3.org/TR/2001/REC-SVG-20010904/DTD/svg10.dtd">
<svg version="1.0" xmlns="http://www.w3.org/2000/svg"
 width="759.000000pt" height="759.000000pt" viewBox="0 0 759.000000 759.000000"
 preserveAspectRatio="xMidYMid meet">
<metadata>
Created by potrace 1.11, written by Peter Selinger 2001-2013
</metadata>
<g transform="translate(0.000000,759.000000) scale(0.100000,-0.100000)"
fill="#000000" stroke="none">
<path d="M3187 7544 c-1 -1 -78 -4 -172 -8 -93 -3 -197 -8 -230 -11 -33 -2
-98 -7 -145 -10 -47 -3 -98 -7 -115 -9 -16 -2 -64 -7 -105 -11 -41 -4 -88 -9
-105 -11 -16 -2 -52 -6 -80 -9 -78 -10 -175 -24 -210 -32 -11 -2 -29 -6 -40
-7 -88 -15 -304 -65 -320 -74 -5 -4 -17 -7 -25 -9 -27 -4 -164 -63 -230 -100
-157 -86 -331 -234 -401 -343 -18 -27 -35 -50 -38 -50 -3 0 -15 -18 -25 -40
-11 -22 -23 -40 -28 -40 -5 0 -7 -4 -3 -9 3 -5 1 -12 -4 -15 -17 -11 -71 -162
-98 -274 -20 -87 -26 -134 -27 -247 0 -77 2 -156 6 -175 8 -36 24 -110 32
-145 18 -76 62 -200 97 -273 70 -147 79 -164 123 -247 23 -44 62 -118 86 -165
24 -47 57 -106 72 -132 15 -27 25 -48 22 -48 -4 0 -1 -6 5 -13 6 -8 25 -40 42
-73 17 -32 45 -84 61 -114 63 -115 168 -320 164 -320 -2 0 5 -24 15 -52 36
-97 70 -193 74 -208 2 -8 15 -49 30 -90 65 -188 150 -504 139 -522 -3 -4 -1
-8 3 -8 5 0 9 -8 9 -17 1 -19 6 -53 24 -143 6 -30 13 -71 16 -90 2 -19 6 -44
9 -55 4 -20 12 -81 20 -145 2 -19 6 -46 9 -60 8 -45 21 -176 40 -425 2 -27 7
-86 10 -130 25 -312 91 -475 254 -626 l70 -65 -9 -54 c-6 -30 -9 -84 -9 -120
2 -134 2 -167 1 -235 0 -38 1 -79 3 -90 9 -59 16 -118 21 -186 3 -41 14 -108
25 -148 39 -138 82 -204 240 -362 126 -126 193 -184 285 -246 33 -22 83 -65
110 -95 28 -30 73 -72 100 -93 53 -40 162 -94 205 -101 14 -3 36 -9 50 -14 14
-4 43 -12 65 -16 22 -4 47 -9 55 -10 65 -14 125 -17 424 -19 252 -1 355 1 403
11 35 8 76 16 91 19 25 4 48 9 90 19 144 34 328 155 397 260 9 13 31 31 50 40
61 29 149 103 248 209 101 107 126 139 169 217 30 54 66 156 74 208 3 20 9 53
14 72 5 19 12 55 15 79 4 24 13 60 20 80 44 112 55 186 59 385 l4 196 75 79
c41 43 83 92 93 107 10 16 21 31 24 34 3 3 18 30 32 60 49 102 82 228 93 360
6 67 15 147 21 169 3 14 19 74 28 106 1 6 10 37 20 70 9 33 23 83 31 110 8 28
24 82 35 120 12 39 23 78 25 89 26 123 169 573 266 833 196 528 198 534 194
592 -4 92 -65 142 -190 158 -57 7 -2564 10 -2610 3 -16 -3 -34 -8 -40 -13 -71
-54 -89 -91 -81 -166 6 -59 17 -128 36 -221 6 -30 13 -64 14 -75 2 -11 8 -45
14 -75 6 -30 13 -68 16 -85 2 -16 16 -88 30 -160 14 -71 27 -141 30 -155 2
-14 7 -32 10 -40 3 -8 8 -30 11 -47 3 -18 8 -48 11 -65 10 -59 44 -116 82
-140 l37 -23 480 -1 c467 -1 480 -1 477 -20 -3 -24 -2 -19 -40 -135 -17 -53
-33 -109 -36 -123 -3 -14 -8 -36 -11 -47 -4 -12 -8 -33 -10 -48 -1 -14 -6 -55
-10 -91 -7 -65 -12 -137 -14 -198 -1 -26 -14 -47 -66 -100 -112 -117 -137
-146 -170 -197 -38 -60 -83 -168 -90 -221 -4 -22 -13 -64 -22 -94 -8 -30 -15
-57 -15 -60 0 -3 -4 -13 -10 -23 -5 -10 -11 -26 -13 -35 -3 -9 -10 -37 -16
-62 -8 -29 -11 -128 -11 -277 1 -199 -1 -233 -14 -244 -21 -17 -55 -37 -76
-45 -10 -3 -18 -10 -18 -15 0 -5 -6 -9 -13 -9 -7 0 -38 -24 -68 -53 l-55 -52
-115 0 -115 0 -52 47 c-29 25 -76 62 -105 81 l-52 35 1 63 c1 35 5 89 9 119
11 80 12 120 2 165 -5 22 -10 49 -12 60 -2 11 -8 35 -13 53 -6 17 -9 32 -6 32
3 0 0 8 -5 18 -5 9 -12 56 -15 102 -15 241 -65 360 -222 530 -23 25 -60 65
-83 90 -22 24 -41 53 -42 65 0 11 -2 27 -3 35 -2 8 -6 60 -10 115 -11 152 -15
196 -21 240 -4 22 -8 54 -10 70 -2 17 -18 114 -35 215 -37 216 -40 235 -45
275 -2 17 -5 31 -6 33 -3 4 -20 89 -25 127 -1 11 -3 20 -4 20 -2 0 -4 12 -13
55 -3 14 -8 32 -11 40 -3 8 -8 32 -11 53 -3 21 -10 47 -15 58 -6 10 -8 19 -6
19 3 0 -1 18 -9 40 -8 22 -14 41 -13 43 3 6 -60 209 -129 417 -61 182 -170
446 -199 480 -7 8 -13 18 -13 22 -2 16 -66 143 -73 146 -4 2 -8 10 -8 18 0 11
-182 377 -364 730 -15 31 -24 59 -20 64 5 5 25 11 44 14 19 3 46 8 60 11 35 6
98 15 145 20 22 2 49 6 60 8 26 6 158 22 250 32 304 30 538 38 1085 38 473 0
581 -3 945 -29 50 -3 113 -7 140 -9 93 -6 176 -15 333 -35 151 -20 188 -25
242 -35 14 -2 45 -7 70 -10 25 -3 54 -7 65 -9 11 -2 48 -9 82 -16 l61 -12 48
-107 c56 -124 83 -165 126 -187 53 -27 105 -24 208 13 52 19 102 36 110 38 8
2 15 4 15 5 0 1 7 3 15 5 23 6 183 64 205 75 28 13 148 50 159 49 5 0 12 3 15
8 3 4 50 23 105 41 108 37 138 58 168 116 16 32 19 51 14 105 -15 169 -58 317
-135 461 -150 283 -407 500 -695 586 -103 31 -198 54 -295 70 -18 3 -43 8 -55
10 -11 2 -48 9 -81 14 -33 5 -69 11 -80 13 -11 3 -47 8 -80 11 -33 4 -67 9
-75 11 -8 2 -42 6 -75 10 -73 7 -141 15 -175 20 -14 2 -59 7 -100 10 -41 3
-97 8 -125 10 -27 3 -88 7 -135 9 -159 9 -295 18 -330 23 -32 5 -1178 12
-1183 7z"/>
</g>
</svg>
