<?xml version="1.0" encoding="utf-8"?>
<!-- Generator: Adobe Illustrator 19.2.1, SVG Export Plug-In . SVG Version: 6.00 Build 0)  -->
<svg version="1.2" baseProfile="tiny" id="Layer_1" xmlns="http://www.w3.org/2000/svg" xmlns:xlink="http://www.w3.org/1999/xlink"
	 x="0px" y="0px" viewBox="0 0 24 24" xml:space="preserve">
<path fill="#010202" d="M4.5,22.8c0.6,0.4,1.5,0.4,2.2-0.1c-1-0.6-2-1.4-2.8-2.2C3.7,21.4,3.9,22.3,4.5,22.8"/>
<path fill="#010202" d="M17.9,7.5c4.4,5.4,6.5,10.9,4.8,12.3c-1.7,1.4-6.7-1.8-11-7.2C7.3,7.2,5.1,1.7,6.9,0.3
	C8.6-1.1,13.5,2.1,17.9,7.5"/>
<path fill="#010202" d="M10,13.9c-2.2-2.8-4-5.7-5-8.2C4.2,3.7,4,2.1,4.2,1C1.6,3.9-1.6,9.5,3.1,17.8c2,3.3,6.6,6.1,11.6,6.2
	c2.5,0,4.8-0.7,6.7-1.8C17.9,22.1,13.2,17.9,10,13.9"/>
</svg>
