<?xml version="1.0" encoding="utf-8"?>
<!-- Generator: Adobe Illustrator 19.2.1, SVG Export Plug-In . SVG Version: 6.00 Build 0)  -->
<svg version="1.2" baseProfile="tiny" id="Layer_1" xmlns="http://www.w3.org/2000/svg" xmlns:xlink="http://www.w3.org/1999/xlink"
	 x="0px" y="0px" viewBox="0 0 24 24" xml:space="preserve">
<path fill="#010202" d="M18.9,0H5.1C4.9,0,4.8,0.1,4.8,0.3v23.4c0,0.2,0.1,0.3,0.3,0.3h13.9c0.2,0,0.3-0.1,0.3-0.3V0.3
	C19.2,0.1,19.1,0,18.9,0z M15,20.9C15,21,15,21,15,20.9l-6,0c0,0,0,0,0,0v-4.4h6V20.9z M15,15.1H9v-2.4h6V15.1z M15,11.3H9V9.1h6
	V11.3z M15,7.7H9V3.1c0,0,0,0,0,0H15c0,0,0,0,0,0V7.7z"/>
</svg>
