<?xml version="1.0" encoding="utf-8"?>
<!-- Generator: Adobe Illustrator 19.2.1, SVG Export Plug-In . SVG Version: 6.00 Build 0)  -->
<svg version="1.2" baseProfile="tiny" id="Layer_4" xmlns="http://www.w3.org/2000/svg" xmlns:xlink="http://www.w3.org/1999/xlink"
	 x="0px" y="0px" viewBox="0 0 24 24" xml:space="preserve">
<path d="M12,24c-1,0-1-1-1-1c-1,0-1-1-1-1v-1h4v1c0,0,0,1-1,1C13,23,13,24,12,24"/>
<path d="M18.6,8.5C18.9,7.8,19,7.1,19,6.4C19,2,15.9,0,12,0h0C8.1,0,5,2,5,6.4c0,0.7,0.1,1.5,0.4,2.1C7.5,8.2,9.7,8,12,8
	C14.3,8,16.5,8.2,18.6,8.5z"/>
<path d="M5.8,9.5c0,0,1.5,3.2,1.9,4.2C8.3,15,8.3,17,8.3,17s-0.1,0.4,0.6,2.2c0.1,0.2,0.3,0.3,0.5,0.3H12h0.1h2.6
	c0.2,0,0.4-0.1,0.5-0.3c0.6-1.7,0.5-2.2,0.5-2.2s0-1.8,0.6-3c0.4-1,1.9-4.3,1.9-4.4c-2-0.3-4-0.6-6.2-0.6C9.9,9,7.8,9.2,5.8,9.5z"/>
</svg>
