<?xml version="1.0" encoding="utf-8"?>
<!-- Generator: Adobe Illustrator 19.2.1, SVG Export Plug-In . SVG Version: 6.00 Build 0)  -->
<svg version="1.2" baseProfile="tiny" id="Layer_1" xmlns="http://www.w3.org/2000/svg" xmlns:xlink="http://www.w3.org/1999/xlink"
	 x="0px" y="0px" viewBox="0 0 24 24" xml:space="preserve">
<path fill="#010202" d="M10.7,17.4c-1.5,0.8-2.8,2.2-3.4,2.9c0.1,0.3,0.2,0.6-0.1,0.7c-0.6,0.5-1.6,0.2-2.6-0.6
	c-1-0.8-0.8-1.8-0.5-2.1c0.1-0.1,0.3-0.1,0.5-0.1c1.1-1.1,1.6-2.7,2-4.1c-3.2-3-4.4-5.6-4.8-7.3c-1.2,2.3-2,5-1.7,7.6
	c0.7,6.3,6.4,9,9.1,9.3c1.7,0.2,3.6,0,5.4-0.7c1.6-0.6,3.1-1.7,4.5-2.9c-0.2,0-0.4,0-0.6,0C16.9,20.3,14.3,19.7,10.7,17.4"/>
<path fill="#010202" d="M11.2,11.8L11.2,11.8L11.2,11.8C7.5,9,5,5.6,4.3,3C3.8,3.7,3.3,4.4,2.7,5.2C2.7,5.3,2.6,5.5,2.5,5.6
	c0.1,1,0.6,4.9,6.7,9.6c6,4.6,9.6,4.5,11.2,3.7c0.1-0.1,0.1-0.1,0.2-0.2c0.6-0.6,1.1-1.3,1.6-2c-0.1,0-0.2,0-0.4,0
	C19.1,16.7,15.5,15.1,11.2,11.8"/>
<path fill="#010202" d="M18.8,5.3C14.6,1.7,10.7,0,8.4,0C6.2,0,6.1,1.1,6.1,1.8c0.1,2,2.5,5.5,6.2,8.4c7.3,5.5,10.8,5,11.5,3.6
	C24.6,12.1,22.4,8.4,18.8,5.3 M19.1,11c-0.4,0.7-2.1,0.9-5.7-1.9c-1.9-1.5-2.9-2.9-3-4c0-0.3-0.1-1.1,1-1.1c1.2,0,3.1,0.8,5.2,2.7
	C17.7,7.5,19.7,9.6,19.1,11"/>
</svg>
