<?xml version="1.0" encoding="utf-8"?>
<!-- Generator: Adobe Illustrator 19.2.1, SVG Export Plug-In . SVG Version: 6.00 Build 0)  -->
<svg version="1.2" baseProfile="tiny" id="Layer_1" xmlns="http://www.w3.org/2000/svg" xmlns:xlink="http://www.w3.org/1999/xlink"
	 x="0px" y="0px" viewBox="0 0 24 24" xml:space="preserve">
<g>
	<circle fill="none" cx="12" cy="4.634" r="0.837"/>
	<path fill="none" d="M12,6.8c-2.867,0-5.2,2.332-5.2,5.2s2.333,5.2,5.2,5.2c2.868,0,5.2-2.332,5.2-5.2S14.868,6.8,12,6.8z
		 M12,15.275c-1.807,0-3.276-1.469-3.276-3.275c0-1.807,1.469-3.276,3.276-3.276c1.806,0,3.276,1.469,3.276,3.276
		C15.276,13.806,13.806,15.275,12,15.275z"/>
	<circle cx="12" cy="12" r="3.276"/>
	<path d="M24,19V5c0-2.761-2.238-5-5-5H5C2.24,0,0.002,2.237,0,4.996v14.008C0.002,21.763,2.24,24,5,24h14
		C21.762,24,24,21.761,24,19z M12,3.798c0.462,0,0.837,0.375,0.837,0.836S12.462,5.471,12,5.471c-0.461,0-0.836-0.376-0.836-0.837
		S11.539,3.798,12,3.798z M12,17.2c-2.867,0-5.2-2.332-5.2-5.2S9.133,6.8,12,6.8c2.868,0,5.2,2.332,5.2,5.2S14.868,17.2,12,17.2z"/>
</g>
</svg>
