<?xml version="1.0" encoding="utf-8"?>
<!-- Generator: Adobe Illustrator 19.2.1, SVG Export Plug-In . SVG Version: 6.00 Build 0)  -->
<svg version="1.2" baseProfile="tiny" id="Layer_1" xmlns="http://www.w3.org/2000/svg" xmlns:xlink="http://www.w3.org/1999/xlink"
	 x="0px" y="0px" viewBox="0 0 24 24" xml:space="preserve">
<path fill="#010202" d="M12,15.1c-5,0-8.2-0.9-8.7-1.5c0.5-0.6,3.7-1.5,8.7-1.5c5,0,8.2,0.9,8.7,1.5C20.2,14.2,17,15.1,12,15.1z"/>
<path fill="#010202" d="M22.2,13.8c0,0,0-0.1,0-0.1c0-2.8-9.2-2.9-10.2-2.9S1.8,10.8,1.8,13.6c0,0,0,0.1,0,0.1
	C0.6,13.3,0,12.7,0,12.2c0-1.3,4.7-3.3,12-3.3c7.3,0,12,1.9,12,3.3C24,12.7,23.4,13.3,22.2,13.8z"/>
</svg>
