<?xml version="1.0" encoding="utf-8"?>
<!-- Generator: Adobe Illustrator 19.2.1, SVG Export Plug-In . SVG Version: 6.00 Build 0)  -->
<svg version="1.2" baseProfile="tiny" id="Layer_1" xmlns="http://www.w3.org/2000/svg" xmlns:xlink="http://www.w3.org/1999/xlink"
	 x="0px" y="0px" viewBox="0 0 24 24" xml:space="preserve">
<path fill="#010202" d="M9.3,18.5c-0.5,0.4-0.9,0.9-1,1c-0.1,0.1-0.8,0.6-0.2,1c0.6,0.4,1.6,0.8,3.6,0.8c0.1,0,0.1,0,0.2,0
	c-0.4-0.3-0.7-0.6-1.1-0.9C10.3,19.7,9.7,19.1,9.3,18.5"/>
<path fill="#010202" d="M22.3,13.1c-2-2.7-3.5-3.8-4.3-4.3c-0.1-0.1-0.4-0.3-0.1-0.3c0.3,0,1.8,0.2,1.8-1.5c0-1.7-2-3.9-4-4.9
	c-2-0.9-3.7-0.3-3.4,1.3C12.6,5,14,6.4,14.7,7c0.1,0.1,0.3,0.3-0.1,0.2c-0.4-0.1-2.1-0.5-3.4-0.1C10,7.4,9.6,8.1,9.5,8.3
	c0,0.1-0.1,0.2-0.3-0.1C9.1,8,8.4,5.8,5.7,4.3C4.2,3.4,1.8,2.7,0.5,4S1,8.3,2.1,9.2C3.3,10.1,5.9,12,8.3,11l0,0
	c-0.1,1.1-0.7,4.8,3.3,8.6c4,3.8,9.6,3.2,11.6,0.8l0,0C24.9,18.7,23.6,14.8,22.3,13.1 M22.6,20.1c-2.8,2.3-7.3-0.6-9.2-2.3
	C7,11.5,9.9,8,11.3,7.6c1.7-0.7,4.4,0.1,6.3,1.4c2,1.3,3.3,3,3.6,3.4C21.8,13,25.3,17.8,22.6,20.1"/>
<path fill="#010202" d="M12.1,9.2c-1.1,0.4-3.4,3.2,1.7,8.3c1.5,1.3,5.2,3.6,7.4,1.8c2.2-1.8-0.6-5.7-1-6.3
	c-0.2-0.3-1.3-1.7-2.9-2.7C15.6,9.3,13.5,8.7,12.1,9.2"/>
</svg>
