<?xml version="1.0" encoding="utf-8"?>
<!-- Generator: Adobe Illustrator 19.2.1, SVG Export Plug-In . SVG Version: 6.00 Build 0)  -->
<svg version="1.2" baseProfile="tiny" id="Layer_1" xmlns="http://www.w3.org/2000/svg" xmlns:xlink="http://www.w3.org/1999/xlink"
	 x="0px" y="0px" viewBox="0 0 24 24" xml:space="preserve">
<path fill="#010202" d="M12,0C5.4,0,0,5.4,0,12c0,6.6,5.4,12,12,12s12-5.4,12-12C24,5.4,18.6,0,12,0z M5.5,15.1
	c-1.7,0-3.1-1.4-3.1-3.1s1.4-3.1,3.1-3.1s3.1,1.4,3.1,3.1S7.3,15.1,5.5,15.1z M12,21.4c-1.7,0-3.1-1.4-3.1-3.1
	c0-1.7,1.4-3.1,3.1-3.1c1.7,0,3.1,1.4,3.1,3.1C15.1,20,13.7,21.4,12,21.4z M17.6,15c-1.1-0.3-2.1-1.2-2.3-2.3
	c-0.2-0.9,0-1.9,0.6-2.7c0.6-0.7,1.5-1.2,2.4-1.2c0.2,0,0.5,0,0.7,0.1c1.1,0.3,2.1,1.2,2.3,2.3c0.2,0.9,0,1.9-0.6,2.7
	C20,14.9,18.8,15.3,17.6,15z"/>
</svg>
