<?xml version="1.0" encoding="utf-8"?>
<!-- Generator: Adobe Illustrator 19.2.1, SVG Export Plug-In . SVG Version: 6.00 Build 0)  -->
<svg version="1.2" baseProfile="tiny" id="Layer_1" xmlns="http://www.w3.org/2000/svg" xmlns:xlink="http://www.w3.org/1999/xlink"
	 x="0px" y="0px" viewBox="0 0 24 24.004" xml:space="preserve">
<g>
	<path d="M15.016,17.984c0,0,0.953-6.403,1.934-9.972c-1.686,0.442-3.859,0.517-5.109,0.517c-1.875,0-3.637-0.157-4.778-0.409
		C8.03,11.684,8.984,18,8.984,18S9.121,19,10,19h4C14,19,14.74,18.944,15.016,17.984z"/>
	<path d="M5.817,1.326C4.242,2.329,5.935,5.324,6.674,6.892C6.69,6.928,6.706,6.962,6.721,6.995
		c1.775,0.625,7.973,0.848,10.629-0.154c0.009-0.018,0.018-0.037,0.027-0.056c0.761-1.594,2.347-4.479,0.806-5.46
		C16.487,0.246,13.76,0.001,12.013,0h-0.027C10.241,0.001,7.512,0.246,5.817,1.326z"/>
	<path d="M13.011,23C14.031,23,14,22,14,22v-2h-4v2c0,0-0.042,1,0.979,1c0,0,0.002,1.004,1.001,1.004h0.034
		C13.013,24.004,13.011,23,13.011,23z"/>
</g>
</svg>
