<?xml version="1.0" encoding="utf-8"?>
<!-- Generator: Adobe Illustrator 19.2.1, SVG Export Plug-In . SVG Version: 6.00 Build 0)  -->
<svg version="1.2" baseProfile="tiny" id="Layer_1" xmlns="http://www.w3.org/2000/svg" xmlns:xlink="http://www.w3.org/1999/xlink"
	 x="0px" y="0px" viewBox="0 0 24 24" xml:space="preserve">
<path fill="#010202" d="M12,2.6c-7.5,0-9.4,0.7-9.4,0.7C2.8-0.1,12,0,12,0s9.2-0.1,9.4,3.2C21.4,3.2,19.7,2.6,12,2.6"/>
<path fill="#010202" d="M5,8h14c0,0,1.7-3,2-4H3C3,4,3.8,6.2,5,8"/>
<path fill="#010202" d="M11,9H6c0,0,3,1.5,3,8l0,1c0,0,0,1,1,1h1h2h1c1,0,1-1,1-1l0-1c0-6.5,3-8,3-8h-5H11z"/>
<path fill="#010202" d="M12,24c-1,0-1-1-1-1c-1,0-1-1-1-1v-2h4v2c0,0,0,1-1,1C13,23,13,24,12,24"/>
</svg>
