<?xml version="1.0" encoding="utf-8"?>
<!-- Generator: Adobe Illustrator 19.2.1, SVG Export Plug-In . SVG Version: 6.00 Build 0)  -->
<svg version="1.2" baseProfile="tiny" id="Layer_1" xmlns="http://www.w3.org/2000/svg" xmlns:xlink="http://www.w3.org/1999/xlink"
	 x="0px" y="0px" viewBox="0 0 100 100" xml:space="preserve">
<g>
	<path fill="#1D1D1B" d="M98.281,30.584L46.368,8.547c-0.204-0.088-0.413-0.167-0.621-0.167c-0.271,0-0.546,0.058-0.804,0.204
		L1.535,33.042c-1.042,0.588-1.533,2-1.533,3.408v16.9L40.843,30.33c1.504-0.85,3.2-1.3,4.904-1.3c1.329,0,2.633,0.267,3.867,0.788
		l50.379,21.321L100,37.567v-3.401C99.998,32.661,99.425,31.068,98.281,30.584z"/>
	<path fill="#1D1D1B" d="M100,62.9c-0.01-1.482-0.585-2.957-1.72-3.438L46.367,37.49c-0.204-0.083-0.412-0.129-0.621-0.129
		c-0.271,0-0.546,0.075-0.804,0.221L1.534,62.049c-2.162,1.221-2,6.017,0.237,6.879l47.958,18.5
		c0.188,0.075,0.379,0.108,0.571,0.108c0.217,0,0.438-0.046,0.646-0.138l47.362-21c1.13-0.5,1.692-1.982,1.691-3.463V62.9z"/>
</g>
</svg>
