<?xml version="1.0" encoding="utf-8"?>
<!-- Generator: Adobe Illustrator 19.2.1, SVG Export Plug-In . SVG Version: 6.00 Build 0)  -->
<svg version="1.2" baseProfile="tiny" id="Layer_1" xmlns="http://www.w3.org/2000/svg" xmlns:xlink="http://www.w3.org/1999/xlink"
	 x="0px" y="0px" viewBox="0 0 24 24" xml:space="preserve">
<path fill="#010202" d="M10.495,24.005H9.499C9.223,24.005,9,23.78,9,23.504v-0.772c0-0.276,0.223-0.501,0.499-0.501h0.997
	c0.276,0,0.501,0.225,0.501,0.501v0.772C10.996,23.78,10.771,24.005,10.495,24.005z"/>
<path fill="#010202" d="M15.495,24.005h-0.997c-0.276,0-0.499-0.225-0.499-0.501v-0.772c0-0.276,0.223-0.501,0.499-0.501h0.997
	c0.276,0,0.501,0.225,0.501,0.501v0.772C15.996,23.78,15.771,24.005,15.495,24.005z"/>
<g>
	<path fill="#010202" d="M12.246-0.029c-5.419,0-9.814,1.411-9.814,3.149s4.394,3.149,9.814,3.149c5.417,0,9.812-1.411,9.812-3.149
		S17.664-0.029,12.246-0.029z M12.245,4.984c-4.466,0-8.087-0.833-8.087-1.865c0-1.029,3.621-1.864,8.087-1.864
		c4.468,0,8.089,0.835,8.089,1.864C20.334,4.151,16.713,4.984,12.245,4.984z"/>
</g>
<g>
	<path fill="#010202" d="M2.98,5.396c0.958,5.965,3.812,8.333,3.994,8.504c0.196,0.182,0.775,1.018,0.775,1.771v5.191
		c0,0.148,2.064,1.22,3.5,1.22h2.487c1.589,0,3.012-1.076,3.012-1.22v-5.191c0-0.871,0.512-1.507,0.766-1.771
		c0.236-0.247,3.005-2.548,3.926-8.5c-2.026,1.271-5.699,1.869-9.226,1.869C8.683,7.269,5.005,6.67,2.98,5.396z"/>
</g>
</svg>
